<svg xmlns="http://www.w3.org/2000/svg" xmlns:xlink="http://www.w3.org/1999/xlink" width="500" zoomAndPan="magnify" viewBox="0 0 375 374.999991" height="500" preserveAspectRatio="xMidYMid meet" version="1.0"><defs><g/><clipPath id="8cd82c56a9"><path d="M 20 52 L 341 52 L 341 370 L 20 370 Z M 20 52 " clip-rule="nonzero"/></clipPath><clipPath id="a3f3a1c479"><path d="M -35.652344 288.277344 L 97.238281 0.15625 L 390.296875 135.324219 L 257.410156 423.445312 Z M -35.652344 288.277344 " clip-rule="nonzero"/></clipPath><clipPath id="f7edf91c61"><path d="M -35.652344 288.277344 L 97.238281 0.15625 L 390.296875 135.324219 L 257.410156 423.445312 Z M -35.652344 288.277344 " clip-rule="nonzero"/></clipPath><clipPath id="2f03879abf"><path d="M 209.777344 349.953125 C 206.8125 352.515625 201.667969 351.339844 196.734375 352.6875 C 195.171875 352.757812 197.445312 352.199219 200.628906 351.601562 C 203.78125 351.066406 207.75 349.988281 209.777344 349.953125 Z M 203.714844 365.316406 L 204.046875 366.972656 C 207.070312 366.558594 209.894531 365.742188 209.78125 364.546875 C 208.125 364.929688 207.230469 365.433594 206.347656 365.96875 C 206.066406 365.304688 205.71875 364.785156 203.714844 365.316406 Z M 275.417969 306.515625 C 277.636719 304.199219 279.59375 301.941406 280.285156 300.167969 C 273.046875 309.222656 261.914062 318.371094 254.550781 324.769531 C 257.023438 322.953125 259.527344 321.171875 261.921875 319.242188 L 268.804688 313.109375 C 270.746094 311.222656 273.222656 308.84375 275.417969 306.515625 Z M 318.914062 148.78125 C 320.640625 151.894531 321.839844 155.050781 323.125 158.015625 C 324.347656 161.003906 325.597656 163.875 326.578125 166.671875 C 328.40625 172.335938 330.289062 177.542969 331.699219 182.554688 C 331.726562 182.667969 331.769531 182.789062 331.792969 182.902344 C 331.644531 185 331.214844 186.871094 330.402344 188.410156 C 331.257812 191.863281 331.601562 195.210938 332.066406 198.410156 C 332.46875 201.628906 332.9375 204.703125 333.175781 207.667969 C 333.1875 207.75 333.179688 207.824219 333.183594 207.875 C 333.042969 208.117188 332.894531 208.332031 332.78125 208.632812 C 332.929688 208.753906 333.101562 208.882812 333.25 209.003906 C 333.542969 214.445312 333.933594 219.519531 334.011719 224.328125 C 334.007812 229.527344 334.3125 234.515625 334.457031 239.402344 C 334.527344 244.28125 334.855469 249.152344 335.398438 254.222656 C 335.777344 249.472656 336.234375 243.894531 336.738281 237.878906 C 336.851562 231.886719 337.335938 225.527344 337.320312 219.144531 C 337.28125 217.292969 337.296875 215.4375 337.289062 213.570312 C 337.308594 213.582031 337.300781 213.601562 337.320312 213.609375 C 337.550781 211.957031 337.484375 210.878906 337.308594 209.933594 C 337.3125 206.71875 337.292969 203.550781 337.136719 200.464844 C 338.230469 203.957031 339.417969 207.460938 340.785156 211.023438 C 339.933594 206.347656 338.929688 200.835938 337.839844 194.898438 C 337.558594 193.800781 337.316406 192.667969 337.050781 191.527344 C 337.050781 191.527344 337.058594 191.503906 337.058594 191.503906 C 337.035156 188.6875 336.929688 185.984375 337.023438 183.453125 C 334.777344 181.90625 337.230469 187.324219 336.148438 187.511719 C 335.6875 185.414062 335.226562 183.3125 334.695312 181.207031 C 333.835938 176.984375 332.984375 172.917969 331.816406 169.089844 C 331.019531 166.222656 330.207031 163.449219 329.367188 160.792969 C 329.082031 159.972656 328.757812 159.183594 328.429688 158.398438 C 327.597656 155.5625 326.824219 152.757812 326.148438 150.074219 C 325.390625 147.351562 324.59375 144.765625 324.027344 142.285156 C 321.355469 141.335938 325.554688 146.382812 324.109375 146.480469 C 321.058594 140.484375 318.453125 134.792969 315.300781 129.742188 C 313.800781 127.1875 312.292969 124.707031 310.777344 122.351562 C 309.191406 120.039062 307.457031 117.886719 305.761719 115.804688 C 308.933594 122.089844 312.527344 128.234375 315.449219 133.84375 C 318.300781 139.492188 319.859375 144.800781 318.914062 148.78125 Z M 260.984375 81.941406 C 263.488281 83.808594 265.832031 85.527344 268.050781 87.1875 C 270.320312 88.796875 272.449219 90.3125 274.527344 91.78125 C 276.546875 93.324219 278.5625 94.816406 280.617188 96.222656 C 278.527344 94.390625 276.269531 92.433594 273.988281 90.410156 C 271.585938 88.539062 269.101562 86.628906 266.699219 84.753906 C 261.90625 80.9375 256.761719 78.105469 252.589844 76.359375 C 255.617188 78.367188 258.390625 80.207031 260.984375 81.941406 Z M 288.898438 323.523438 C 291.070312 321.132812 294.015625 318.511719 296.703125 315.773438 C 299.375 313.027344 301.527344 309.964844 302.613281 307.277344 C 300.394531 309.925781 297.632812 313.269531 294.773438 316.03125 C 291.960938 318.867188 289.589844 321.523438 288.898438 323.523438 Z M 204.996094 54.6875 C 208.128906 55.085938 211.195312 55.457031 214.140625 55.820312 C 210.699219 55.097656 207.257812 54.429688 203.851562 53.851562 C 200.40625 53.464844 197.007812 53.144531 193.695312 52.917969 C 192.035156 52.816406 190.414062 52.730469 188.796875 52.648438 C 187.199219 52.625 185.605469 52.707031 184.0625 52.785156 C 180.980469 52.945312 178.027344 53.214844 175.28125 53.582031 C 182.023438 53.453125 188.796875 53.3125 195.335938 53.957031 C 198.605469 54.214844 201.863281 54.339844 204.996094 54.6875 Z M 162.167969 55.136719 C 164.96875 54.820312 167.378906 54.402344 169.066406 53.675781 C 163.601562 54.292969 157.183594 54.492188 153.152344 56.15625 C 154.703125 55.949219 156.257812 55.726562 157.777344 55.53125 C 159.296875 55.390625 160.785156 55.261719 162.167969 55.136719 Z M 236.488281 294.808594 C 235.46875 295.308594 233.839844 296.292969 232.023438 297.519531 C 230.199219 298.769531 227.988281 299.96875 226.023438 301.460938 C 226.066406 302.144531 225.859375 303.144531 226.308594 301.949219 C 228.011719 300.363281 230.929688 299.566406 231.890625 299.195312 C 230.015625 300.214844 227.871094 301.21875 228.976562 302.363281 C 229.210938 301.910156 229.539062 301.578125 229.914062 301.265625 C 229.917969 301.421875 229.914062 301.546875 229.980469 301.730469 C 230.382812 302.019531 231.867188 301.453125 233.1875 300.582031 C 234.453125 299.664062 235.589844 298.527344 235.472656 298.066406 C 235.019531 298.496094 234.324219 298.785156 233.566406 299.046875 C 233.886719 298.738281 234.03125 298.371094 233.871094 297.886719 C 233.519531 298.261719 232.917969 298.621094 232.296875 298.972656 C 238.203125 294.683594 238.53125 293.8125 236.488281 294.808594 Z M 251.640625 298.839844 C 253.769531 296.992188 257.089844 295.4375 256.164062 293.070312 C 253.957031 295.316406 252.03125 297.109375 251.640625 298.839844 Z M 129.9375 362.96875 C 131.625 363.234375 133.238281 363.445312 134.621094 363.597656 C 132.902344 363.339844 131.160156 362.96875 129.507812 362.410156 C 127.871094 361.808594 126.273438 361.125 124.78125 360.488281 C 121.777344 359.203125 119.160156 358.074219 117.148438 357.960938 C 118.632812 359.386719 121.617188 360.660156 124.921875 361.675781 C 126.554688 362.171875 128.269531 362.605469 129.9375 362.96875 Z M 254.605469 315.257812 C 254.648438 315.660156 256.851562 314.53125 260.316406 310.058594 C 258.359375 311.425781 256.96875 312.671875 256.011719 313.585938 C 255.054688 314.445312 254.566406 315.058594 254.605469 315.257812 Z M 217.695312 335.726562 C 220.808594 333.894531 224.847656 332.214844 226.296875 329.898438 C 224.082031 330.996094 220.84375 332.050781 218.523438 332.816406 C 216.195312 333.605469 214.753906 334.140625 216.03125 333.910156 C 219.816406 332.394531 216.085938 334.730469 217.695312 335.726562 Z M 246.632812 320.710938 C 242.644531 321.445312 240.238281 325.386719 235.257812 327.503906 C 238.5625 328.796875 244.242188 321.46875 246.632812 320.710938 Z M 52.253906 301.296875 C 51.421875 301.222656 50.058594 300.464844 50.578125 299.785156 C 49.253906 297.570312 44.59375 291.03125 44.175781 289.613281 C 42.539062 287.074219 40.9375 284.578125 39.429688 282.097656 C 36.828125 277.453125 33.945312 273.085938 31.292969 268.828125 C 32.707031 270.015625 34.167969 270.945312 35.695312 273.4375 C 34.742188 270.855469 33.847656 268.375 32.992188 265.914062 C 32.273438 264.15625 31.574219 262.40625 30.929688 260.652344 C 29.183594 255.257812 27.453125 249.996094 25.945312 244.863281 C 24.632812 239.691406 22.964844 234.738281 21.527344 229.945312 C 22.589844 231.453125 23.761719 232.734375 24.585938 235.535156 C 24.566406 235.246094 24.535156 234.976562 24.515625 234.6875 C 22.183594 222.824219 21.59375 211.382812 22.683594 199.511719 C 21.429688 199.574219 21.292969 202.417969 21.261719 205.414062 C 20.46875 206.910156 20.660156 204.113281 20.929688 200.820312 C 21.136719 197.550781 21.890625 193.816406 21.128906 193.3125 C 22.261719 194.117188 23.179688 192.242188 24.003906 188.847656 C 24.335938 187.242188 24.773438 185.300781 25.265625 183.183594 C 26.527344 175.523438 28.441406 168.117188 31.148438 160.746094 C 30.316406 160.566406 29.628906 161.832031 29.03125 163.570312 C 28.855469 164.175781 28.664062 164.753906 28.476562 165.378906 C 28.421875 165.609375 28.347656 165.832031 28.28125 166.082031 C 27.582031 166.828125 27.640625 166.144531 28.054688 164.804688 C 27.636719 163.054688 30.460938 158.261719 30.984375 153.476562 C 29.625 154.101562 28.535156 157.066406 27.289062 158.558594 C 27.664062 151.386719 33.367188 151.464844 36.050781 143.878906 C 35.035156 144.25 33.992188 145.734375 32.980469 147.765625 C 32.785156 146.808594 33.628906 144.980469 32.464844 144.851562 C 36.59375 136.78125 41.5 129.019531 47.082031 121.675781 C 46.777344 121.941406 46.484375 122.191406 46.210938 122.394531 C 47.222656 119.265625 48.941406 117.917969 50.925781 116.714844 C 52.210938 115.140625 53.574219 113.625 54.914062 112.101562 C 55.183594 111.410156 55.410156 110.75 54.75 110.46875 C 69.660156 93.957031 88.535156 80.347656 109.726562 71.117188 C 115.175781 68.761719 120.769531 66.699219 126.488281 64.921875 C 130.28125 63.609375 134.105469 62.390625 138 61.304688 C 138.929688 61.226562 139.960938 61.089844 140.964844 60.964844 C 143.53125 59.265625 150.578125 59.199219 154.699219 58.21875 C 154.277344 58.535156 153.621094 58.792969 152.871094 58.980469 C 161.234375 57.765625 169.722656 57.113281 178.3125 57.070312 C 179.230469 57.238281 180.269531 57.363281 181.25 57.507812 C 183.957031 56.613281 189.960938 58.03125 194.199219 58.355469 C 191.457031 57.828125 189.042969 56.921875 188.796875 55.914062 C 192.734375 54.667969 198.339844 57.613281 202.113281 58.332031 C 200.925781 59.035156 197.835938 58.984375 194.917969 58.507812 C 192.433594 59.25 186.648438 57.804688 182.3125 57.691406 C 182.675781 57.734375 182.980469 57.796875 183.34375 57.835938 C 185.113281 58.144531 187.011719 58.457031 188.96875 58.796875 C 192.867188 59.527344 197.148438 59.867188 201.535156 60.921875 C 205.917969 61.921875 210.554688 62.710938 215.117188 64.097656 C 219.660156 65.53125 224.3125 66.835938 228.699219 68.65625 C 232.226562 70.027344 235.683594 71.542969 239.082031 73.1875 C 239.101562 73.199219 239.144531 73.21875 239.164062 73.226562 C 239.292969 73.285156 239.417969 73.34375 239.523438 73.394531 C 239.964844 73.597656 240.425781 73.808594 240.859375 74.035156 C 255.636719 80.925781 269.597656 89.8125 281.714844 101.089844 C 306.929688 124.222656 325.160156 155.917969 330.292969 191.519531 C 329.808594 191.246094 329.410156 190.730469 329.082031 189.890625 C 330.484375 197.910156 331.261719 206.070312 331.332031 214.316406 C 331.554688 216.765625 331.777344 219.214844 332 221.613281 C 332.128906 223.433594 332.296875 225.21875 332.3125 227.011719 C 332.285156 228.785156 332.230469 230.570312 332.128906 232.335938 C 331.375 230.761719 331.285156 228.246094 331.160156 225.535156 C 331.125 225.164062 331.113281 224.800781 331.082031 224.429688 C 330.910156 227.179688 330.695312 229.914062 330.367188 232.671875 C 329.738281 232.046875 329.390625 230.96875 329.667969 228.878906 C 329.628906 229.015625 329.613281 229.160156 329.597656 229.304688 C 329.503906 230.28125 329.433594 231.269531 329.296875 232.277344 C 328.984375 235.167969 328.664062 238.132812 328.359375 241.003906 C 327.890625 243.847656 327.324219 246.570312 326.796875 248.980469 C 326.949219 246.21875 327.351562 243.242188 327.65625 240.039062 C 327.03125 243.832031 326.527344 247.578125 326.117188 251.34375 C 325.476562 255 324.851562 258.617188 324.238281 262.160156 C 323.878906 263.933594 323.59375 265.714844 323.132812 267.4375 C 322.644531 269.152344 322.140625 270.859375 321.582031 272.511719 C 321.257812 270.78125 321.8125 268.359375 322.414062 265.679688 C 322.917969 262.976562 323.59375 260.074219 323.878906 257.578125 C 322.484375 261.042969 321.042969 266.320312 318.863281 271.71875 C 317.816406 274.425781 316.734375 277.214844 315.699219 279.898438 C 314.519531 282.519531 313.269531 285.003906 312.125 287.203125 C 313.289062 283.632812 315.011719 279.785156 316.480469 275.441406 C 317.960938 271.125 320.03125 266.695312 321.359375 261.875 C 318.363281 264.78125 315.367188 269.621094 312.640625 274.535156 C 311.953125 275.75 311.253906 276.984375 310.578125 278.175781 C 309.796875 279.320312 309.054688 280.429688 308.332031 281.5 C 306.84375 283.621094 305.386719 285.449219 303.945312 286.746094 C 304.730469 286.039062 304.25 285.484375 303.304688 285.429688 C 302.1875 288.128906 299.089844 292.082031 297.671875 294.871094 C 297.652344 292.875 300.796875 288.816406 302.777344 285.46875 C 301.910156 285.578125 300.835938 286.027344 299.894531 287.070312 C 299.714844 287.242188 299.5625 287.402344 299.410156 287.5625 C 299.515625 287.28125 299.519531 287 299.386719 286.789062 C 299.703125 287.316406 294.234375 289.664062 296.417969 286.3125 C 293.390625 290.21875 290.269531 293.675781 287.21875 296.859375 C 284.007812 299.894531 280.691406 302.546875 277.476562 305.09375 C 279.992188 301.742188 285.882812 297.214844 289.996094 291.664062 C 294.429688 286.363281 297.175781 280.410156 295.21875 276.804688 C 292.324219 278.097656 289.582031 279.511719 286.660156 281.808594 C 283.578125 284.011719 280.648438 287.378906 277.046875 292.425781 C 275.910156 292.230469 274.878906 291.371094 273.546875 292.214844 C 272.894531 291.527344 276.734375 289.449219 277.789062 286.667969 C 278.066406 285.625 277.300781 285.070312 278.558594 283.558594 C 278.257812 283.496094 277.925781 283.546875 277.617188 283.609375 C 276.515625 285.445312 274.976562 287.949219 274.050781 289.792969 C 273.066406 289.492188 273.667969 288.519531 274.332031 287.523438 C 271.75 290.132812 270.234375 292.316406 268.488281 294.445312 C 266.816406 296.632812 265.222656 299.035156 262.550781 302.011719 C 262.046875 300.835938 260.761719 302.179688 259.59375 303.171875 C 261.773438 300.324219 264.855469 296.238281 268.578125 292.421875 C 270.449219 290.527344 272.089844 288.351562 273.875 286.472656 C 274.625 285.621094 275.40625 284.808594 276.179688 284.015625 C 275.140625 284.503906 274.082031 285.191406 273.039062 285.574219 C 273.507812 283.394531 280.75 280.691406 276.980469 277.804688 C 275.546875 277.039062 273.894531 280.511719 272.292969 282.65625 C 271.355469 281.816406 272.644531 280.011719 274.027344 278.125 C 272.351562 277.609375 270.847656 277.882812 270.125 277.347656 C 269.238281 278.722656 268.238281 279.894531 267.742188 280.25 C 267.46875 279.84375 267.820312 279.191406 267.363281 278.851562 C 260.332031 288.183594 266.679688 278.128906 269.785156 275.378906 C 269.792969 275.355469 269.78125 275.324219 269.800781 275.285156 C 267.160156 276.363281 265.859375 277.136719 264.65625 278.035156 C 263.492188 278.953125 262.308594 279.914062 259.945312 281.117188 C 259.886719 280.25 260.898438 279.210938 262.027344 278.152344 C 263.101562 277.039062 264.363281 275.964844 265.023438 275.246094 C 265.074219 274.199219 265.09375 273.164062 265.070312 272.15625 C 262.707031 272.472656 261.734375 278.117188 260.242188 278.09375 C 259.65625 277.542969 259.058594 277.011719 258.355469 277.707031 C 258.796875 275.589844 262.761719 274.230469 264.605469 270.847656 C 263.859375 270.578125 261.765625 273.132812 263.664062 270.234375 C 262.109375 270.5625 260.546875 274.28125 258.984375 275.066406 C 259.601562 273.230469 261.445312 269.566406 263.125 266.976562 C 262.152344 265.710938 261.253906 267.769531 260.339844 268.089844 C 259.265625 269.480469 259.277344 270.453125 260.382812 271.042969 C 257.363281 272.503906 255.558594 271.878906 253.46875 273.921875 C 251.390625 274.0625 254.773438 270.597656 252.617188 272.28125 C 252.347656 270.652344 254.222656 267.917969 256.292969 265.203125 C 256.808594 264.523438 257.304688 263.832031 257.792969 263.164062 C 258.214844 262.46875 258.589844 261.769531 258.917969 261.109375 C 259.398438 260.128906 259.742188 259.269531 259.824219 258.539062 C 258.480469 261.007812 257.023438 263.394531 255.46875 265.765625 C 255.300781 266.019531 255.125 266.296875 254.957031 266.550781 C 254.472656 267.269531 253.976562 267.957031 253.46875 268.667969 C 252.960938 269.378906 252.457031 270.089844 251.949219 270.800781 C 251.761719 271.042969 251.582031 271.265625 251.390625 271.511719 C 247.480469 276.621094 243.117188 281.265625 238.378906 285.402344 C 238.257812 285.5 238.136719 285.597656 238.035156 285.703125 C 236.976562 286.617188 235.894531 287.523438 234.8125 288.375 C 234.449219 288.667969 234.097656 288.9375 233.742188 289.207031 C 232.902344 289.867188 232.042969 290.515625 231.171875 291.132812 C 230.5625 291.566406 229.964844 291.980469 229.335938 292.402344 C 228.707031 292.828125 228.066406 293.273438 227.4375 293.695312 C 227.214844 293.847656 226.992188 294 226.777344 294.132812 C 226.921875 294.375 227.695312 294.019531 229.152344 292.90625 C 229.007812 294.878906 224.6875 295.898438 223.308594 296.511719 C 224.730469 299.894531 227.804688 295.167969 229.785156 295.238281 C 227.535156 298.460938 222.992188 299.296875 220.894531 301.800781 C 221.996094 301.515625 224.996094 300.09375 228.039062 298.308594 C 226.699219 299.554688 225.386719 301.347656 223.882812 302.949219 C 223.535156 303.324219 223.160156 303.6875 222.765625 303.988281 C 224.425781 303.324219 226.042969 302.746094 227.136719 302.203125 C 227.039062 302.464844 226.859375 302.6875 226.703125 302.921875 C 226.804688 302.917969 226.90625 302.863281 227.011719 302.859375 C 225.0625 306.808594 218.714844 306.636719 215.207031 310.703125 C 216.429688 311.753906 218.078125 308.179688 219.984375 309.082031 C 219.558594 308.402344 221.261719 307.527344 223.363281 306.789062 C 225.484375 306.058594 227.890625 305.101562 229.148438 304.867188 C 225.078125 307.886719 221.546875 309.394531 218.074219 311.234375 C 216.351562 312.203125 214.511719 312.984375 212.496094 313.867188 C 210.507812 314.8125 208.320312 315.84375 205.808594 317.03125 C 211.539062 315.058594 216.472656 315.371094 223.488281 312.433594 C 219.179688 312.101562 225.441406 310.910156 226.910156 311.433594 C 227.007812 310 229.050781 308.671875 231.621094 307.359375 C 231.882812 307.835938 230.914062 308.28125 230.398438 308.734375 C 240.089844 305.195312 249.109375 297.035156 259.246094 287.222656 C 257.875 289.140625 256.410156 290.992188 254.914062 292.800781 C 253.339844 294.550781 251.585938 296.085938 249.894531 297.652344 C 249.339844 298.1875 248.765625 298.664062 248.210938 299.144531 C 249.589844 298.199219 250.863281 297.488281 251.394531 297.605469 C 252.546875 296.707031 252.148438 296.140625 252.960938 295.316406 C 253.871094 295.226562 252.863281 296.800781 251.382812 298.519531 C 249.925781 300.242188 247.753906 301.792969 246.945312 302.109375 C 246.796875 301.65625 247.308594 301.101562 246.941406 300.679688 C 242.078125 304.480469 242.25 303.996094 244.015625 302.4375 C 242.414062 303.589844 240.796875 304.65625 239.226562 305.738281 C 237.503906 306.984375 235.679688 307.957031 233.9375 308.964844 C 233.070312 309.632812 232.21875 310.3125 231.316406 310.941406 C 229.359375 312.207031 227.265625 313.257812 225.21875 314.328125 C 224.015625 314.996094 222.808594 315.5625 221.574219 316.089844 C 220.984375 316.480469 220.40625 316.851562 219.859375 317.261719 C 222.933594 316.179688 225.792969 315.179688 228.484375 314.046875 C 229.578125 313.226562 230.96875 312.414062 232.578125 311.472656 C 232.617188 311.71875 232.570312 311.929688 232.527344 312.136719 C 232.558594 312.125 232.589844 312.117188 232.628906 312.082031 C 234.566406 311.089844 236.441406 310.117188 238.320312 309.148438 C 240.128906 308.042969 241.882812 306.835938 243.710938 305.640625 C 250.980469 300.832031 258.34375 294.484375 266.929688 284.164062 C 265.75 286.78125 263.847656 289.242188 261.675781 291.683594 C 259.546875 294.144531 257.210938 296.664062 254.554688 298.832031 C 249.519531 303.5 243.890625 307.40625 239.695312 311.746094 C 238.839844 311.9375 238.894531 311.605469 238.726562 311.195312 C 238.511719 311.328125 238.308594 311.488281 238.097656 311.621094 C 235.386719 313.457031 232.511719 315.269531 229.363281 316.671875 C 227.875 317.464844 226.363281 318.199219 224.84375 318.898438 C 226.207031 318.761719 227.546875 318.894531 227.277344 318.160156 C 230.011719 317.535156 227.023438 320.3125 225.484375 320.878906 C 226.652344 321.441406 229.109375 321.09375 226.453125 322.929688 C 227.285156 324.003906 229.679688 322.789062 230.941406 323.316406 C 231.511719 322.6875 232.117188 322.152344 233.265625 321.484375 L 236.632812 319.492188 C 238.960938 317.757812 241.648438 315.859375 244.578125 314.101562 C 246.878906 312.761719 249.011719 311.070312 251.238281 309.722656 C 253.410156 308.277344 255.644531 307.089844 257.480469 305.871094 C 258.175781 305.628906 253.09375 310.121094 250.574219 312.9375 C 250.351562 312.808594 250.242188 312.65625 250.21875 312.492188 C 247.113281 315.679688 243.042969 317.984375 236.890625 321.367188 C 236.675781 321.5 236.503906 321.648438 236.292969 321.78125 C 236.28125 321.75 236.257812 321.742188 236.269531 321.71875 C 236.097656 321.820312 235.953125 321.90625 235.757812 321.996094 C 235.921875 321.867188 236.050781 321.746094 236.214844 321.617188 C 235.972656 320.921875 235.164062 321.183594 234.214844 321.640625 C 230.328125 325.253906 226.570312 327.371094 222.6875 329.710938 C 220.636719 330.730469 218.523438 331.769531 216.226562 332.933594 C 213.921875 334.113281 211.449219 335.496094 208.515625 336.824219 C 205.238281 335.132812 199.886719 340.265625 193.804688 340.519531 C 194.710938 340.429688 197.730469 340.902344 200.785156 340.753906 C 202.335938 340.601562 203.871094 340.316406 205.128906 339.800781 C 204.464844 339.800781 203.878906 339.683594 203.394531 339.355469 C 204.785156 339.15625 206.050781 338.796875 207.21875 338.367188 C 207.40625 338.121094 207.566406 337.890625 207.671875 337.605469 C 208.269531 337.578125 208.5 337.683594 208.578125 337.847656 C 211.28125 336.746094 213.574219 335.535156 216.128906 335.742188 C 214.566406 335.8125 211.175781 337.972656 208.121094 339.113281 C 208.101562 339.15625 208.105469 339.207031 208.09375 339.230469 C 210.863281 337.980469 211.308594 337.675781 213.230469 338.4375 C 214.6875 337.707031 212.089844 337.757812 213.859375 337.015625 C 215.636719 337.148438 217.265625 337.3125 221.570312 336.339844 C 222.460938 336.011719 223.351562 335.734375 224.230469 335.375 C 223.984375 334.75 223.039062 334.976562 221.972656 335.300781 C 227.488281 333.40625 232.933594 330.996094 238.316406 328.171875 C 237.808594 328.21875 237.390625 328.078125 237.199219 327.609375 C 239.363281 326.566406 241.363281 325.21875 243.40625 323.941406 C 243.222656 324.390625 242.054688 325.765625 240.753906 326.875 C 252.191406 320.542969 263.261719 312.132812 273.734375 301.429688 C 275.238281 302.148438 269.558594 305.34375 271 306.085938 C 274.367188 304.375 279.121094 297.714844 282.367188 293.550781 C 281.339844 291.523438 279.265625 296.40625 277.65625 297.90625 C 275.402344 299.472656 282.15625 290.523438 283.332031 290.351562 C 283.574219 292.425781 281.664062 295.574219 279.097656 298.929688 C 276.324219 302.117188 272.867188 305.46875 270.316406 308.449219 C 270.378906 307.710938 270.425781 306.996094 269.820312 306.484375 C 269.128906 307.265625 268.375 308.011719 267.589844 308.722656 C 268.46875 309.636719 268.855469 309.078125 267.96875 312.214844 C 267.484375 312.882812 266.878906 313.085938 266.300781 313.125 C 265.925781 313.488281 265.554688 313.855469 265.132812 314.21875 C 263.144531 315.980469 260.417969 317.582031 259.105469 319.042969 C 259.867188 317.503906 260.800781 316.53125 261.871094 315.648438 C 261.328125 315.5 261.042969 315.0625 259.214844 316.261719 C 258.71875 318.277344 256.207031 320.6875 253.019531 323.171875 C 249.507812 325.53125 245.292969 327.871094 242.078125 330.085938 C 242.230469 329.644531 242.351562 329.21875 242.335938 328.804688 C 241.480469 329.277344 240.625 329.75 239.769531 330.222656 C 240.105469 330.707031 240.113281 330.964844 238.855469 333.089844 C 236.621094 334.890625 234.386719 331.105469 234.777344 334.523438 C 231.90625 335.546875 232.1875 334.65625 231.34375 334.445312 C 227.84375 336.222656 224.664062 337.921875 222.296875 339.351562 C 222.390625 339.039062 222.351562 338.84375 222.253906 338.722656 C 219.410156 339.859375 215.945312 341.066406 212.128906 341.933594 C 209.9375 342.476562 207.714844 343.035156 205.476562 343.582031 C 205.445312 343.59375 205.414062 343.605469 205.390625 343.59375 C 205.859375 343.964844 206.433594 344.433594 205.152344 345.167969 C 205.585938 345.773438 206.378906 345.65625 207.21875 345.328125 C 207.117188 345.332031 207.003906 345.359375 206.859375 345.394531 C 207.511719 344.417969 208.492188 344.234375 209.566406 344.21875 C 210.101562 344.007812 210.492188 343.929688 210.625 344.25 C 211.820312 344.316406 213.085938 344.386719 214.253906 343.90625 C 213.792969 345.402344 212 345.085938 210.636719 344.890625 C 210.625 344.910156 210.648438 344.921875 210.636719 344.941406 C 209.96875 345.117188 209.476562 345.300781 209.046875 345.457031 C 209.09375 345.582031 209.128906 345.726562 209.21875 345.917969 C 208.804688 345.984375 208.5625 345.898438 208.351562 345.75 C 206.910156 346.4375 206.917969 346.976562 205.675781 347.347656 C 204.003906 347.265625 203.101562 346.515625 202.964844 345.101562 C 199.683594 345.628906 198.832031 346.589844 198.042969 347.753906 C 202.441406 345.292969 198.328125 348.957031 203.425781 347.304688 C 203.300781 347.960938 201.433594 348.195312 201.546875 348.886719 C 204.363281 349.367188 210.105469 347.199219 213.480469 347.070312 C 208.835938 348.574219 202.859375 350.636719 197.710938 351.679688 C 192.597656 352.867188 188.511719 354.097656 187.902344 354.914062 C 187.511719 356.261719 182 354.332031 186.679688 353.863281 C 184.953125 353.628906 177.773438 356.082031 172.203125 355.550781 C 173.617188 356.359375 175.597656 356.761719 173.3125 357.847656 C 178.320312 358.550781 177.070312 357.773438 181.257812 357.050781 C 180.679688 357.523438 180.117188 358.027344 180.191406 358.804688 C 183.917969 358.023438 182.515625 357.25 185.933594 358.46875 C 172.59375 360.015625 156.089844 359.242188 140.085938 355.789062 C 132.175781 354.359375 124.421875 351.648438 117.070312 348.945312 C 113.488281 347.421875 109.980469 345.855469 106.636719 344.3125 C 103.242188 342.824219 100.257812 340.886719 97.285156 339.257812 C 95.851562 339.542969 95.074219 337.910156 93.921875 336.433594 C 92.652344 335.644531 91.445312 334.832031 90.214844 334.011719 C 89.761719 334.386719 90.84375 336.1875 88.207031 334.054688 C 87.46875 333 86.152344 331.652344 84.507812 330.128906 C 84.222656 329.917969 83.925781 329.730469 83.640625 329.523438 C 80.570312 327.113281 77.601562 324.699219 74.761719 322.339844 C 71.871094 320.039062 69.472656 317.378906 67.039062 315.03125 C 65.449219 314.933594 65.21875 312.839844 64.339844 310.980469 C 63.449219 310.035156 62.539062 309.078125 61.660156 308.113281 C 60.988281 308.183594 61.703125 310.503906 59.644531 307.667969 C 59.167969 306.324219 58.105469 304.480469 56.71875 302.339844 C 56.332031 301.855469 55.914062 301.378906 55.554688 300.882812 C 53.699219 298.496094 51.894531 296.210938 50.28125 294.011719 C 48.800781 291.75 47.460938 289.625 46.292969 287.734375 C 49.949219 294.625 54.171875 300.398438 58.199219 306.15625 C 62.667969 311.5625 66.9375 317.074219 72.417969 321.949219 C 64.449219 316.105469 57.960938 308.777344 52.253906 301.296875 Z M 264.222656 313.980469 C 264.515625 313.730469 264.816406 313.460938 265.121094 313.195312 C 264.464844 313.121094 264.0625 313.164062 264.222656 313.980469 Z M 210.765625 324.367188 C 210.488281 324.46875 210.191406 324.5625 209.90625 324.683594 C 210.214844 324.957031 210.5625 325.089844 210.949219 325.191406 C 210.777344 325.011719 210.859375 324.71875 210.765625 324.367188 Z M 62.367188 110.539062 C 63.316406 109.472656 64.21875 108.460938 64.933594 107.515625 C 64.007812 108.363281 63.144531 109.1875 62.277344 110.015625 C 62.246094 110.304688 62.261719 110.492188 62.367188 110.539062 Z M 191.042969 341.03125 C 189.433594 341.589844 187.539062 341.992188 185.726562 342.433594 C 185.753906 342.546875 185.746094 342.617188 185.8125 342.75 C 188.53125 342.652344 191.816406 342.28125 191.742188 340.894531 C 191.546875 340.933594 191.289062 340.992188 191.042969 341.03125 Z M 171.707031 343.414062 C 172.28125 343.269531 172.804688 343.078125 173.242188 342.792969 C 172.421875 342.800781 171.542969 342.773438 170.46875 342.613281 C 170.75 342.945312 171.191406 343.199219 171.707031 343.414062 Z M 174.070312 343.710938 C 174.152344 343.699219 174.222656 343.707031 174.316406 343.722656 C 175.203125 343.570312 175.855469 343.488281 176.414062 343.441406 C 176.554688 343.40625 176.710938 343.398438 176.867188 343.34375 C 179.558594 342.699219 182.269531 341.578125 183.636719 341.160156 C 179.445312 341.011719 177.742188 342.269531 174.855469 342.671875 C 174.738281 342.976562 174.191406 343.335938 174.070312 343.710938 Z M 188.898438 349.328125 C 191.292969 349.003906 193.042969 348.636719 191.6875 348.316406 C 189.371094 348.90625 187.441406 348.730469 185.882812 348.625 C 184.324219 348.570312 183.105469 348.667969 182.101562 349.738281 C 183.402344 349.574219 186.480469 349.539062 188.898438 349.328125 Z M 193.136719 350.976562 L 200.707031 349.773438 L 200.484375 348.652344 C 198.105469 349.492188 191.976562 348.960938 193.136719 350.976562 Z M 257.640625 318.902344 C 257.617188 318.789062 257.554688 318.757812 257.519531 318.667969 C 256.765625 319.414062 255.789062 320.265625 254.574219 321.183594 C 251.992188 323.183594 248.566406 325.582031 244.621094 327.664062 C 248.378906 326.207031 253.847656 321.765625 257.640625 318.902344 Z M 222.148438 320.589844 C 222.175781 320.371094 222.28125 320.191406 222.382812 320.03125 C 218.609375 321.738281 214.929688 323.355469 211.746094 325.28125 C 212.980469 325.261719 214.496094 324.683594 216.171875 323.929688 C 217.480469 323.304688 218.949219 322.660156 220.398438 321.898438 C 221.847656 321.136719 223.355469 320.40625 224.90625 319.921875 C 224.496094 319.375 223.195312 320.203125 222.148438 320.589844 Z M 237.558594 310.402344 C 237.25 310.746094 236.765625 311.132812 236.175781 311.578125 C 236.738281 311.25 237.304688 310.898438 237.875 310.550781 C 237.769531 310.5 237.695312 310.441406 237.558594 310.402344 Z M 222.0625 305.347656 C 221.078125 305.660156 220.082031 305.992188 219.082031 306.394531 C 219.988281 306.585938 220.976562 306.046875 222.0625 305.347656 Z M 218.574219 306.058594 C 218.519531 306.0625 218.480469 306.09375 218.429688 306.09375 C 218.449219 306.105469 218.472656 306.113281 218.492188 306.125 C 218.5 306.101562 218.542969 306.070312 218.574219 306.058594 Z M 196 62.195312 C 192.9375 61.804688 190.425781 61.664062 190.621094 61.855469 C 190.640625 61.863281 190.660156 61.875 190.683594 61.882812 C 192.957031 62.039062 194.710938 62.160156 196 62.195312 Z M 158.632812 60.644531 C 157.851562 60.566406 156.042969 60.726562 153.644531 61.175781 C 156.042969 60.953125 157.671875 60.789062 158.683594 60.644531 C 158.652344 60.65625 158.652344 60.65625 158.632812 60.644531 Z M 142.015625 60.835938 C 142.210938 60.800781 142.386719 60.804688 142.585938 60.769531 C 143.820312 60.519531 145.089844 60.316406 146.3125 60.089844 C 144.816406 60.292969 143.332031 60.527344 142.015625 60.835938 Z M 32.058594 154.6875 C 32.890625 154.535156 33.976562 153.074219 35.222656 150.816406 C 36.21875 148.878906 37.496094 146.433594 38.925781 143.726562 C 39.242188 142.980469 39.492188 142.277344 39.605469 141.691406 C 39.585938 142.015625 39.625 142.210938 39.640625 142.394531 C 40.238281 141.269531 40.863281 140.128906 41.5 138.96875 C 40.628906 138.871094 43.316406 134.476562 47.25 128.714844 C 48.164062 127.453125 49.199219 126.148438 50.257812 124.796875 C 51.910156 122.371094 53.597656 120.371094 55.136719 118.808594 C 55.503906 118.339844 55.894531 117.882812 56.261719 117.417969 C 56.433594 117.214844 56.601562 117.011719 56.792969 116.820312 C 54.996094 117.394531 59.417969 113.617188 61.585938 110.6875 C 60.257812 111.964844 58.9375 113.21875 57.710938 114.4375 C 55.503906 116.683594 53.640625 119.011719 51.761719 121.207031 C 50.003906 123.355469 48.253906 125.429688 46.726562 127.53125 C 46.351562 128.121094 45.996094 128.671875 45.609375 129.285156 C 45.589844 129.277344 45.597656 129.253906 45.585938 129.222656 C 44.441406 130.9375 43.300781 132.632812 42.226562 134.355469 C 40.867188 136.585938 39.433594 138.753906 38.222656 141.105469 C 37.050781 143.472656 35.894531 145.871094 34.75 148.40625 C 33.765625 150.375 32.890625 152.496094 32.058594 154.6875 Z M 52.203125 306.605469 C 50.433594 304.796875 48.070312 299.804688 46.734375 300.105469 C 47.628906 301.589844 47.175781 302.296875 47.945312 303.726562 C 48.898438 302.378906 51.078125 307.054688 52.203125 306.605469 Z M 268.015625 306.035156 C 269.058594 304.601562 269.882812 302.816406 269.957031 302.316406 C 268.324219 304.085938 266.746094 305.910156 264.910156 307.460938 C 265.632812 308.378906 266.972656 307.46875 268.015625 306.035156 Z M 290.074219 282.261719 C 289.09375 284.996094 287.832031 286.738281 286.65625 288.285156 C 285.421875 289.808594 284.375 291.1875 283.929688 293.480469 C 284.808594 291.746094 287.015625 289.5 288.480469 287.265625 C 289.964844 285.042969 291.011719 283.050781 290.074219 282.261719 Z M 240.085938 293.257812 C 242.863281 289.894531 248.242188 288.679688 248.496094 285.53125 C 246.308594 287.507812 241.085938 290.425781 240.085938 293.257812 Z M 254.007812 279.5 C 252.976562 281.347656 248.46875 283.933594 250.421875 285.117188 C 251.058594 282.351562 255.109375 281.261719 254.007812 279.5 Z M 256.1875 349.425781 C 258.910156 347.671875 262.429688 345.902344 265.746094 343.960938 C 269.023438 342.003906 271.910156 339.613281 273.652344 337.277344 C 270.824219 339.265625 267.285156 341.789062 263.800781 343.703125 C 260.363281 345.738281 257.398438 347.6875 256.1875 349.425781 Z M 165.457031 369.070312 C 165.351562 368.359375 165.160156 367.785156 163.097656 367.777344 L 162.984375 369.460938 C 166.019531 369.839844 168.953125 369.789062 169.171875 368.589844 C 167.472656 368.519531 166.453125 368.789062 165.457031 369.070312 Z M 272 324.042969 C 274.421875 321.335938 279.519531 317.640625 280.554688 315.289062 C 283.5625 312.363281 286.070312 309.519531 286.171875 308.035156 C 284.398438 309.996094 281.574219 312.800781 278.832031 315.589844 C 276.082031 318.351562 273.101562 320.828125 271.546875 322.816406 C 272.648438 321.867188 274.144531 320.722656 275.753906 319.449219 C 276.300781 319.039062 276.84375 318.574219 277.402344 318.144531 C 274.972656 320.3125 272.398438 322.519531 272 324.042969 Z M 232.09375 329.054688 C 229.851562 329.878906 228.1875 330.71875 227.039062 331.335938 C 225.855469 331.914062 225.257812 332.378906 225.234375 332.597656 C 225.152344 332.992188 227.558594 332.472656 232.09375 329.054688 Z M 222.691406 341.753906 C 227.988281 339.171875 234.875 335.972656 241.554688 332.320312 C 241.230469 332.195312 240.917969 332.101562 240.296875 332.453125 C 241.199219 329.886719 244.753906 330.863281 247.070312 329.101562 C 247.0625 329.121094 247.050781 329.140625 247.0625 329.171875 C 249.472656 327.707031 251.820312 326.214844 253.945312 324.644531 C 252.8125 326.164062 250.347656 327.855469 247.59375 329.519531 C 247.308594 329.695312 247.03125 329.847656 246.75 330.023438 C 246.5 330.339844 246.089844 330.5625 245.648438 330.6875 C 243.484375 331.960938 241.300781 333.148438 239.480469 334.167969 L 231.246094 338.304688 C 228.445312 339.5625 225.558594 340.628906 222.691406 341.753906 Z M 242.402344 331.867188 C 242.921875 331.574219 243.441406 331.277344 243.960938 330.980469 C 242.9375 331.09375 242.144531 331.214844 242.402344 331.867188 Z M 99.808594 345.347656 C 97.765625 344.351562 96.917969 343.757812 97.105469 343.460938 C 98.429688 344.351562 99.847656 345.261719 101.316406 346.21875 C 101.082031 346.289062 100.820312 346.296875 100.585938 346.417969 C 104.285156 348.304688 108.292969 350.613281 112.742188 352.585938 C 117.136719 354.664062 121.738281 356.964844 126.535156 358.617188 C 131.296875 360.40625 136.078125 362.152344 140.730469 363.074219 C 145.363281 364.085938 149.734375 365.058594 153.621094 365.039062 C 150.117188 364.0625 146.40625 363.039062 142.664062 361.976562 C 145.335938 362.597656 148.164062 363.210938 151.132812 363.6875 C 155.9375 364.550781 160.945312 365.585938 166.03125 365.945312 C 171.085938 366.4375 176.167969 366.867188 180.894531 366.574219 C 185.632812 366.363281 190.09375 366.148438 193.851562 365.128906 C 179.628906 364.996094 162.59375 365.046875 149.824219 361.605469 C 150.734375 361.617188 152.144531 361.9375 152.25 361.371094 C 150.050781 361.941406 147.007812 361.351562 144.308594 360.617188 C 141.824219 359.980469 139.582031 359.585938 138.1875 360.625 C 137.359375 360.371094 136.53125 360.117188 135.707031 359.863281 C 136.058594 359.925781 136.425781 359.964844 136.757812 360.015625 C 133.328125 359.328125 132.816406 358.886719 134.746094 358.347656 C 131.367188 357.9375 127.6875 356.675781 123.78125 355.359375 C 121.84375 354.691406 119.863281 353.957031 117.867188 353.191406 C 117.375 352.988281 116.871094 352.757812 116.386719 352.535156 C 114.859375 351.804688 113.386719 351.023438 111.972656 350.214844 C 112.851562 350.46875 114.125 351.132812 114.378906 350.636719 C 112.097656 350.605469 109.296875 349.265625 106.890625 347.847656 C 105.792969 347.238281 104.742188 346.703125 103.777344 346.359375 C 102.933594 345.921875 102.019531 345.472656 101.238281 345.011719 C 100.128906 344.371094 99.054688 343.773438 98 343.183594 C 98.082031 343.171875 98.152344 343.179688 98.257812 343.175781 C 97.636719 342.917969 96.996094 342.59375 96.375 342.28125 C 95.921875 342.046875 95.488281 341.824219 95.066406 341.578125 C 92.914062 340.382812 90.722656 338.9375 88.460938 337.433594 C 86.746094 336.285156 85.039062 335.066406 83.320312 333.8125 C 81.601562 332.5625 80.03125 331.097656 78.414062 329.738281 C 78.390625 329.730469 78.382812 329.699219 78.359375 329.691406 C 78.820312 329.800781 79.339844 329.835938 79.644531 329.722656 C 75.929688 326.832031 72.539062 323.511719 69.039062 320.316406 C 66.375 319.339844 75.148438 326.472656 77.4375 328.703125 C 77.410156 328.765625 77.484375 328.824219 77.476562 328.898438 C 74.621094 326.410156 71.765625 324.019531 69.378906 321.621094 C 66.707031 318.957031 64.257812 316.578125 62.128906 314.78125 C 64.078125 317.082031 66.582031 319.945312 69.40625 323.058594 C 72.328125 326.066406 75.773438 329.109375 79.214844 332.148438 C 80.921875 333.703125 82.726562 335.097656 84.613281 336.375 C 86.457031 337.683594 88.277344 338.933594 90.046875 340.078125 C 91.820312 341.203125 93.496094 342.332031 95.148438 343.171875 C 96.824219 344.070312 98.390625 344.769531 99.808594 345.347656 Z M 257.570312 333.765625 C 255.347656 335.210938 251.886719 337.1875 248.527344 339.15625 C 245.148438 341.121094 241.644531 342.742188 239.621094 344.257812 C 240.929688 343.636719 242.667969 342.90625 244.546875 342.089844 C 246.460938 341.316406 248.441406 340.394531 250.265625 339.320312 C 253.929688 337.289062 257.097656 335.179688 257.570312 333.765625 Z M 87.933594 343.824219 C 89.402344 344.730469 90.933594 345.613281 92.441406 346.386719 C 94.007812 347.082031 95.507812 347.699219 96.800781 348.21875 C 95.203125 347.53125 93.621094 346.703125 92.183594 345.730469 C 90.761719 344.71875 89.390625 343.652344 88.09375 342.648438 C 85.523438 340.644531 83.28125 338.871094 81.386719 338.226562 C 82.445312 340.015625 84.996094 342.007812 87.933594 343.824219 Z M 299.351562 287.585938 C 296.421875 290.621094 298.875 289 299.351562 287.585938 Z M 31.945312 271.835938 C 30.695312 269.625 29.726562 264.203125 28.355469 264.132812 C 28.832031 265.808594 28.199219 266.355469 28.589844 267.941406 C 29.851562 266.914062 30.75 271.996094 31.945312 271.835938 Z M 248.859375 281.921875 C 247.367188 283.886719 243.429688 286.175781 243.523438 287.90625 C 246.078125 286.40625 247.949219 284.613281 248.859375 281.921875 Z M 198.890625 56.640625 C 200.402344 56.90625 201.871094 57.148438 203.234375 57.394531 C 206.003906 57.804688 208.449219 58.039062 210.273438 57.785156 C 204.828125 56.984375 198.574219 55.5 194.261719 56.0625 C 195.832031 56.25 197.371094 56.449219 198.890625 56.640625 Z M 328.328125 249.863281 C 329.636719 251.617188 331.003906 253.242188 331.421875 255.882812 C 332.972656 252.234375 332.03125 251.238281 332.714844 248.316406 C 331.019531 247.789062 329.539062 248.179688 328.328125 249.863281 Z M 240.996094 70.808594 C 237.535156 69.132812 232.902344 64.855469 228.761719 65.039062 C 228.730469 67.265625 238.273438 71.566406 240.996094 70.808594 Z M 283.796875 306.324219 C 286.066406 305.664062 292.375 299.671875 293.046875 296.335938 C 290.132812 298.894531 284.246094 303.855469 283.796875 306.324219 Z M 297.242188 115.75 C 299.007812 117.894531 300.679688 119.914062 302.304688 121.863281 C 303.851562 123.875 305.425781 125.824219 307.019531 127.734375 C 305.484375 125.417969 303.820312 122.945312 302.105469 120.417969 C 300.265625 117.988281 298.375 115.507812 296.527344 113.050781 C 292.886719 108.105469 288.65625 104.0625 285.066406 101.285156 C 287.460938 103.996094 289.675781 106.496094 291.730469 108.847656 C 293.703125 111.3125 295.527344 113.609375 297.242188 115.75 Z M 235.59375 64.820312 C 238.6875 65.917969 241.785156 66.886719 244.722656 68.035156 C 247.660156 69.238281 250.496094 70.394531 253.269531 71.519531 C 250.140625 69.949219 246.984375 68.390625 243.839844 66.964844 C 240.628906 65.6875 237.417969 64.515625 234.277344 63.421875 C 232.707031 62.902344 231.15625 62.390625 229.628906 61.890625 C 228.070312 61.453125 226.535156 61.128906 225.011719 60.78125 C 221.996094 60.132812 219.066406 59.621094 216.320312 59.273438 C 222.859375 60.914062 229.429688 62.539062 235.59375 64.820312 Z M 235.59375 64.820312 " clip-rule="nonzero"/></clipPath><linearGradient x1="-28.041416" gradientTransform="matrix(-1.27788, 1.931649, -1.931649, -1.27788, 396.280845, 167.211546)" y1="68.556999" x2="162.49265" gradientUnits="userSpaceOnUse" y2="68.556999" id="6dbd7449b3"><stop stop-opacity="1" stop-color="rgb(40.79895%, 73.298645%, 88.999939%)" offset="0"/><stop stop-opacity="1" stop-color="rgb(40.79895%, 73.298645%, 88.999939%)" offset="0.125"/><stop stop-opacity="1" stop-color="rgb(40.79895%, 73.298645%, 88.999939%)" offset="0.140625"/><stop stop-opacity="1" stop-color="rgb(40.896606%, 73.34137%, 89.01825%)" offset="0.148438"/><stop stop-opacity="1" stop-color="rgb(41.22467%, 73.484802%, 89.079285%)" offset="0.152344"/><stop stop-opacity="1" stop-color="rgb(41.453552%, 73.58551%, 89.122009%)" offset="0.15625"/><stop stop-opacity="1" stop-color="rgb(41.682434%, 73.684692%, 89.164734%)" offset="0.160156"/><stop stop-opacity="1" stop-color="rgb(41.912842%, 73.7854%, 89.207458%)" offset="0.164062"/><stop stop-opacity="1" stop-color="rgb(42.141724%, 73.886108%, 89.250183%)" offset="0.167969"/><stop stop-opacity="1" stop-color="rgb(42.370605%, 73.986816%, 89.292908%)" offset="0.171875"/><stop stop-opacity="1" stop-color="rgb(42.599487%, 74.085999%, 89.335632%)" offset="0.175781"/><stop stop-opacity="1" stop-color="rgb(42.828369%, 74.186707%, 89.378357%)" offset="0.179687"/><stop stop-opacity="1" stop-color="rgb(43.057251%, 74.285889%, 89.421082%)" offset="0.183594"/><stop stop-opacity="1" stop-color="rgb(43.286133%, 74.386597%, 89.463806%)" offset="0.1875"/><stop stop-opacity="1" stop-color="rgb(43.515015%, 74.487305%, 89.506531%)" offset="0.191406"/><stop stop-opacity="1" stop-color="rgb(43.745422%, 74.588013%, 89.549255%)" offset="0.195312"/><stop stop-opacity="1" stop-color="rgb(43.974304%, 74.687195%, 89.59198%)" offset="0.199219"/><stop stop-opacity="1" stop-color="rgb(44.203186%, 74.787903%, 89.634705%)" offset="0.203125"/><stop stop-opacity="1" stop-color="rgb(44.432068%, 74.887085%, 89.677429%)" offset="0.207031"/><stop stop-opacity="1" stop-color="rgb(44.66095%, 74.987793%, 89.720154%)" offset="0.210938"/><stop stop-opacity="1" stop-color="rgb(44.889832%, 75.088501%, 89.762878%)" offset="0.214844"/><stop stop-opacity="1" stop-color="rgb(45.118713%, 75.189209%, 89.805603%)" offset="0.21875"/><stop stop-opacity="1" stop-color="rgb(45.347595%, 75.288391%, 89.848328%)" offset="0.222656"/><stop stop-opacity="1" stop-color="rgb(45.576477%, 75.389099%, 89.891052%)" offset="0.226562"/><stop stop-opacity="1" stop-color="rgb(45.805359%, 75.488281%, 89.933777%)" offset="0.230469"/><stop stop-opacity="1" stop-color="rgb(46.035767%, 75.588989%, 89.976501%)" offset="0.234375"/><stop stop-opacity="1" stop-color="rgb(46.264648%, 75.688171%, 90.019226%)" offset="0.238281"/><stop stop-opacity="1" stop-color="rgb(46.49353%, 75.788879%, 90.061951%)" offset="0.242188"/><stop stop-opacity="1" stop-color="rgb(46.722412%, 75.889587%, 90.104675%)" offset="0.246094"/><stop stop-opacity="1" stop-color="rgb(46.951294%, 75.990295%, 90.148926%)" offset="0.25"/><stop stop-opacity="1" stop-color="rgb(47.180176%, 76.089478%, 90.19165%)" offset="0.253906"/><stop stop-opacity="1" stop-color="rgb(47.409058%, 76.190186%, 90.234375%)" offset="0.257812"/><stop stop-opacity="1" stop-color="rgb(47.637939%, 76.289368%, 90.2771%)" offset="0.261719"/><stop stop-opacity="1" stop-color="rgb(47.866821%, 76.390076%, 90.319824%)" offset="0.265625"/><stop stop-opacity="1" stop-color="rgb(48.095703%, 76.490784%, 90.362549%)" offset="0.269531"/><stop stop-opacity="1" stop-color="rgb(48.326111%, 76.591492%, 90.405273%)" offset="0.273438"/><stop stop-opacity="1" stop-color="rgb(48.554993%, 76.690674%, 90.447998%)" offset="0.277344"/><stop stop-opacity="1" stop-color="rgb(48.783875%, 76.791382%, 90.490723%)" offset="0.28125"/><stop stop-opacity="1" stop-color="rgb(49.012756%, 76.890564%, 90.533447%)" offset="0.285156"/><stop stop-opacity="1" stop-color="rgb(49.241638%, 76.991272%, 90.576172%)" offset="0.289062"/><stop stop-opacity="1" stop-color="rgb(49.47052%, 77.090454%, 90.618896%)" offset="0.292969"/><stop stop-opacity="1" stop-color="rgb(49.699402%, 77.191162%, 90.661621%)" offset="0.296875"/><stop stop-opacity="1" stop-color="rgb(49.928284%, 77.29187%, 90.704346%)" offset="0.300781"/><stop stop-opacity="1" stop-color="rgb(50.157166%, 77.392578%, 90.74707%)" offset="0.304688"/><stop stop-opacity="1" stop-color="rgb(50.386047%, 77.49176%, 90.789795%)" offset="0.308594"/><stop stop-opacity="1" stop-color="rgb(50.616455%, 77.592468%, 90.83252%)" offset="0.3125"/><stop stop-opacity="1" stop-color="rgb(50.845337%, 77.69165%, 90.875244%)" offset="0.316406"/><stop stop-opacity="1" stop-color="rgb(51.074219%, 77.792358%, 90.917969%)" offset="0.320312"/><stop stop-opacity="1" stop-color="rgb(51.303101%, 77.893066%, 90.960693%)" offset="0.324219"/><stop stop-opacity="1" stop-color="rgb(51.531982%, 77.993774%, 91.003418%)" offset="0.328125"/><stop stop-opacity="1" stop-color="rgb(51.760864%, 78.092957%, 91.046143%)" offset="0.332031"/><stop stop-opacity="1" stop-color="rgb(51.989746%, 78.193665%, 91.088867%)" offset="0.335938"/><stop stop-opacity="1" stop-color="rgb(52.218628%, 78.292847%, 91.131592%)" offset="0.339844"/><stop stop-opacity="1" stop-color="rgb(52.449036%, 78.393555%, 91.174316%)" offset="0.34375"/><stop stop-opacity="1" stop-color="rgb(52.677917%, 78.494263%, 91.217041%)" offset="0.347656"/><stop stop-opacity="1" stop-color="rgb(52.906799%, 78.594971%, 91.259766%)" offset="0.351562"/><stop stop-opacity="1" stop-color="rgb(53.135681%, 78.694153%, 91.30249%)" offset="0.355469"/><stop stop-opacity="1" stop-color="rgb(53.364563%, 78.794861%, 91.345215%)" offset="0.359375"/><stop stop-opacity="1" stop-color="rgb(53.593445%, 78.894043%, 91.387939%)" offset="0.363281"/><stop stop-opacity="1" stop-color="rgb(53.822327%, 78.994751%, 91.43219%)" offset="0.367188"/><stop stop-opacity="1" stop-color="rgb(54.051208%, 79.093933%, 91.474915%)" offset="0.371094"/><stop stop-opacity="1" stop-color="rgb(54.28009%, 79.194641%, 91.517639%)" offset="0.375"/><stop stop-opacity="1" stop-color="rgb(54.508972%, 79.295349%, 91.560364%)" offset="0.378906"/><stop stop-opacity="1" stop-color="rgb(54.73938%, 79.396057%, 91.603088%)" offset="0.382813"/><stop stop-opacity="1" stop-color="rgb(54.968262%, 79.495239%, 91.645813%)" offset="0.386719"/><stop stop-opacity="1" stop-color="rgb(55.197144%, 79.595947%, 91.688538%)" offset="0.390625"/><stop stop-opacity="1" stop-color="rgb(55.426025%, 79.695129%, 91.731262%)" offset="0.394531"/><stop stop-opacity="1" stop-color="rgb(55.654907%, 79.795837%, 91.773987%)" offset="0.398438"/><stop stop-opacity="1" stop-color="rgb(55.883789%, 79.896545%, 91.816711%)" offset="0.402344"/><stop stop-opacity="1" stop-color="rgb(56.112671%, 79.997253%, 91.859436%)" offset="0.40625"/><stop stop-opacity="1" stop-color="rgb(56.341553%, 80.096436%, 91.902161%)" offset="0.410156"/><stop stop-opacity="1" stop-color="rgb(56.570435%, 80.197144%, 91.944885%)" offset="0.414062"/><stop stop-opacity="1" stop-color="rgb(56.799316%, 80.296326%, 91.98761%)" offset="0.417969"/><stop stop-opacity="1" stop-color="rgb(57.029724%, 80.397034%, 92.030334%)" offset="0.421875"/><stop stop-opacity="1" stop-color="rgb(57.258606%, 80.497742%, 92.073059%)" offset="0.425781"/><stop stop-opacity="1" stop-color="rgb(57.487488%, 80.59845%, 92.115784%)" offset="0.429687"/><stop stop-opacity="1" stop-color="rgb(57.71637%, 80.697632%, 92.158508%)" offset="0.433594"/><stop stop-opacity="1" stop-color="rgb(57.945251%, 80.79834%, 92.201233%)" offset="0.4375"/><stop stop-opacity="1" stop-color="rgb(58.174133%, 80.897522%, 92.243958%)" offset="0.441406"/><stop stop-opacity="1" stop-color="rgb(58.403015%, 80.99823%, 92.286682%)" offset="0.445312"/><stop stop-opacity="1" stop-color="rgb(58.631897%, 81.097412%, 92.329407%)" offset="0.449219"/><stop stop-opacity="1" stop-color="rgb(58.860779%, 81.19812%, 92.372131%)" offset="0.453125"/><stop stop-opacity="1" stop-color="rgb(59.089661%, 81.298828%, 92.414856%)" offset="0.457031"/><stop stop-opacity="1" stop-color="rgb(59.320068%, 81.399536%, 92.457581%)" offset="0.460937"/><stop stop-opacity="1" stop-color="rgb(59.54895%, 81.498718%, 92.500305%)" offset="0.464844"/><stop stop-opacity="1" stop-color="rgb(59.777832%, 81.599426%, 92.54303%)" offset="0.46875"/><stop stop-opacity="1" stop-color="rgb(60.006714%, 81.698608%, 92.585754%)" offset="0.472656"/><stop stop-opacity="1" stop-color="rgb(60.235596%, 81.799316%, 92.628479%)" offset="0.476562"/><stop stop-opacity="1" stop-color="rgb(60.464478%, 81.900024%, 92.671204%)" offset="0.480469"/><stop stop-opacity="1" stop-color="rgb(60.693359%, 82.000732%, 92.715454%)" offset="0.484375"/><stop stop-opacity="1" stop-color="rgb(60.922241%, 82.099915%, 92.758179%)" offset="0.488281"/><stop stop-opacity="1" stop-color="rgb(61.152649%, 82.200623%, 92.800903%)" offset="0.492188"/><stop stop-opacity="1" stop-color="rgb(61.381531%, 82.299805%, 92.843628%)" offset="0.496094"/><stop stop-opacity="1" stop-color="rgb(61.610413%, 82.400513%, 92.886353%)" offset="0.5"/><stop stop-opacity="1" stop-color="rgb(61.839294%, 82.501221%, 92.929077%)" offset="0.503906"/><stop stop-opacity="1" stop-color="rgb(62.068176%, 82.601929%, 92.971802%)" offset="0.507812"/><stop stop-opacity="1" stop-color="rgb(62.297058%, 82.701111%, 93.014526%)" offset="0.511719"/><stop stop-opacity="1" stop-color="rgb(62.52594%, 82.801819%, 93.057251%)" offset="0.515625"/><stop stop-opacity="1" stop-color="rgb(62.754822%, 82.901001%, 93.099976%)" offset="0.519531"/><stop stop-opacity="1" stop-color="rgb(62.983704%, 83.001709%, 93.1427%)" offset="0.523437"/><stop stop-opacity="1" stop-color="rgb(63.212585%, 83.100891%, 93.185425%)" offset="0.527344"/><stop stop-opacity="1" stop-color="rgb(63.442993%, 83.201599%, 93.228149%)" offset="0.53125"/><stop stop-opacity="1" stop-color="rgb(63.671875%, 83.302307%, 93.270874%)" offset="0.535156"/><stop stop-opacity="1" stop-color="rgb(63.900757%, 83.403015%, 93.313599%)" offset="0.539062"/><stop stop-opacity="1" stop-color="rgb(64.129639%, 83.502197%, 93.356323%)" offset="0.542969"/><stop stop-opacity="1" stop-color="rgb(64.358521%, 83.602905%, 93.399048%)" offset="0.546875"/><stop stop-opacity="1" stop-color="rgb(64.587402%, 83.702087%, 93.441772%)" offset="0.550781"/><stop stop-opacity="1" stop-color="rgb(64.816284%, 83.802795%, 93.484497%)" offset="0.554687"/><stop stop-opacity="1" stop-color="rgb(65.045166%, 83.903503%, 93.527222%)" offset="0.558594"/><stop stop-opacity="1" stop-color="rgb(65.274048%, 84.004211%, 93.569946%)" offset="0.5625"/><stop stop-opacity="1" stop-color="rgb(65.50293%, 84.103394%, 93.612671%)" offset="0.566406"/><stop stop-opacity="1" stop-color="rgb(65.733337%, 84.204102%, 93.655396%)" offset="0.570312"/><stop stop-opacity="1" stop-color="rgb(65.962219%, 84.303284%, 93.69812%)" offset="0.574219"/><stop stop-opacity="1" stop-color="rgb(66.191101%, 84.403992%, 93.740845%)" offset="0.578125"/><stop stop-opacity="1" stop-color="rgb(66.419983%, 84.5047%, 93.783569%)" offset="0.582031"/><stop stop-opacity="1" stop-color="rgb(66.648865%, 84.605408%, 93.826294%)" offset="0.585937"/><stop stop-opacity="1" stop-color="rgb(66.877747%, 84.70459%, 93.869019%)" offset="0.589844"/><stop stop-opacity="1" stop-color="rgb(67.106628%, 84.805298%, 93.913269%)" offset="0.59375"/><stop stop-opacity="1" stop-color="rgb(67.33551%, 84.90448%, 93.955994%)" offset="0.597656"/><stop stop-opacity="1" stop-color="rgb(67.564392%, 85.005188%, 93.998718%)" offset="0.601562"/><stop stop-opacity="1" stop-color="rgb(67.793274%, 85.10437%, 94.041443%)" offset="0.605469"/><stop stop-opacity="1" stop-color="rgb(68.023682%, 85.205078%, 94.084167%)" offset="0.609375"/><stop stop-opacity="1" stop-color="rgb(68.252563%, 85.305786%, 94.126892%)" offset="0.613281"/><stop stop-opacity="1" stop-color="rgb(68.481445%, 85.406494%, 94.169617%)" offset="0.617188"/><stop stop-opacity="1" stop-color="rgb(68.710327%, 85.505676%, 94.212341%)" offset="0.621094"/><stop stop-opacity="1" stop-color="rgb(68.939209%, 85.606384%, 94.255066%)" offset="0.625"/><stop stop-opacity="1" stop-color="rgb(69.168091%, 85.705566%, 94.297791%)" offset="0.628906"/><stop stop-opacity="1" stop-color="rgb(69.396973%, 85.806274%, 94.340515%)" offset="0.632812"/><stop stop-opacity="1" stop-color="rgb(69.625854%, 85.906982%, 94.38324%)" offset="0.636719"/><stop stop-opacity="1" stop-color="rgb(69.856262%, 86.00769%, 94.425964%)" offset="0.640625"/><stop stop-opacity="1" stop-color="rgb(70.085144%, 86.106873%, 94.468689%)" offset="0.644531"/><stop stop-opacity="1" stop-color="rgb(70.314026%, 86.207581%, 94.511414%)" offset="0.648438"/><stop stop-opacity="1" stop-color="rgb(70.542908%, 86.306763%, 94.554138%)" offset="0.652344"/><stop stop-opacity="1" stop-color="rgb(70.77179%, 86.407471%, 94.596863%)" offset="0.65625"/><stop stop-opacity="1" stop-color="rgb(71.000671%, 86.506653%, 94.639587%)" offset="0.660156"/><stop stop-opacity="1" stop-color="rgb(71.229553%, 86.607361%, 94.682312%)" offset="0.664062"/><stop stop-opacity="1" stop-color="rgb(71.458435%, 86.708069%, 94.725037%)" offset="0.667969"/><stop stop-opacity="1" stop-color="rgb(71.687317%, 86.808777%, 94.767761%)" offset="0.671875"/><stop stop-opacity="1" stop-color="rgb(71.916199%, 86.907959%, 94.810486%)" offset="0.675781"/><stop stop-opacity="1" stop-color="rgb(72.146606%, 87.008667%, 94.85321%)" offset="0.679688"/><stop stop-opacity="1" stop-color="rgb(72.375488%, 87.107849%, 94.895935%)" offset="0.683594"/><stop stop-opacity="1" stop-color="rgb(72.60437%, 87.208557%, 94.93866%)" offset="0.6875"/><stop stop-opacity="1" stop-color="rgb(72.833252%, 87.309265%, 94.981384%)" offset="0.691406"/><stop stop-opacity="1" stop-color="rgb(73.062134%, 87.409973%, 95.024109%)" offset="0.695313"/><stop stop-opacity="1" stop-color="rgb(73.291016%, 87.509155%, 95.066833%)" offset="0.699219"/><stop stop-opacity="1" stop-color="rgb(73.519897%, 87.609863%, 95.109558%)" offset="0.703125"/><stop stop-opacity="1" stop-color="rgb(73.748779%, 87.709045%, 95.152283%)" offset="0.707031"/><stop stop-opacity="1" stop-color="rgb(73.977661%, 87.809753%, 95.196533%)" offset="0.710937"/><stop stop-opacity="1" stop-color="rgb(74.206543%, 87.910461%, 95.239258%)" offset="0.714844"/><stop stop-opacity="1" stop-color="rgb(74.436951%, 88.011169%, 95.281982%)" offset="0.71875"/><stop stop-opacity="1" stop-color="rgb(74.665833%, 88.110352%, 95.324707%)" offset="0.722656"/><stop stop-opacity="1" stop-color="rgb(74.894714%, 88.21106%, 95.367432%)" offset="0.726562"/><stop stop-opacity="1" stop-color="rgb(75.123596%, 88.310242%, 95.410156%)" offset="0.730469"/><stop stop-opacity="1" stop-color="rgb(75.352478%, 88.41095%, 95.452881%)" offset="0.734375"/><stop stop-opacity="1" stop-color="rgb(75.58136%, 88.510132%, 95.495605%)" offset="0.738281"/><stop stop-opacity="1" stop-color="rgb(75.810242%, 88.61084%, 95.53833%)" offset="0.742188"/><stop stop-opacity="1" stop-color="rgb(76.039124%, 88.711548%, 95.581055%)" offset="0.746094"/><stop stop-opacity="1" stop-color="rgb(76.268005%, 88.812256%, 95.623779%)" offset="0.75"/><stop stop-opacity="1" stop-color="rgb(76.496887%, 88.911438%, 95.666504%)" offset="0.753906"/><stop stop-opacity="1" stop-color="rgb(76.727295%, 89.012146%, 95.709229%)" offset="0.757812"/><stop stop-opacity="1" stop-color="rgb(76.956177%, 89.111328%, 95.751953%)" offset="0.761719"/><stop stop-opacity="1" stop-color="rgb(77.185059%, 89.212036%, 95.794678%)" offset="0.765625"/><stop stop-opacity="1" stop-color="rgb(77.41394%, 89.312744%, 95.837402%)" offset="0.769531"/><stop stop-opacity="1" stop-color="rgb(77.642822%, 89.413452%, 95.880127%)" offset="0.773438"/><stop stop-opacity="1" stop-color="rgb(77.871704%, 89.512634%, 95.922852%)" offset="0.777344"/><stop stop-opacity="1" stop-color="rgb(78.100586%, 89.613342%, 95.965576%)" offset="0.78125"/><stop stop-opacity="1" stop-color="rgb(78.329468%, 89.712524%, 96.008301%)" offset="0.785156"/><stop stop-opacity="1" stop-color="rgb(78.559875%, 89.813232%, 96.051025%)" offset="0.789062"/><stop stop-opacity="1" stop-color="rgb(78.788757%, 89.91394%, 96.09375%)" offset="0.792969"/><stop stop-opacity="1" stop-color="rgb(79.017639%, 90.014648%, 96.136475%)" offset="0.796875"/><stop stop-opacity="1" stop-color="rgb(79.246521%, 90.113831%, 96.179199%)" offset="0.800781"/><stop stop-opacity="1" stop-color="rgb(79.475403%, 90.214539%, 96.221924%)" offset="0.804688"/><stop stop-opacity="1" stop-color="rgb(79.704285%, 90.313721%, 96.264648%)" offset="0.808594"/><stop stop-opacity="1" stop-color="rgb(79.933167%, 90.414429%, 96.307373%)" offset="0.8125"/><stop stop-opacity="1" stop-color="rgb(80.162048%, 90.513611%, 96.350098%)" offset="0.816406"/><stop stop-opacity="1" stop-color="rgb(80.39093%, 90.614319%, 96.392822%)" offset="0.820312"/><stop stop-opacity="1" stop-color="rgb(80.619812%, 90.715027%, 96.435547%)" offset="0.824219"/><stop stop-opacity="1" stop-color="rgb(80.85022%, 90.815735%, 96.479797%)" offset="0.828125"/><stop stop-opacity="1" stop-color="rgb(81.079102%, 90.914917%, 96.522522%)" offset="0.832031"/><stop stop-opacity="1" stop-color="rgb(81.307983%, 91.015625%, 96.565247%)" offset="0.835937"/><stop stop-opacity="1" stop-color="rgb(81.536865%, 91.114807%, 96.607971%)" offset="0.839844"/><stop stop-opacity="1" stop-color="rgb(81.765747%, 91.215515%, 96.650696%)" offset="0.84375"/><stop stop-opacity="1" stop-color="rgb(81.994629%, 91.316223%, 96.69342%)" offset="0.847656"/><stop stop-opacity="1" stop-color="rgb(82.223511%, 91.416931%, 96.736145%)" offset="0.851562"/><stop stop-opacity="1" stop-color="rgb(82.452393%, 91.516113%, 96.77887%)" offset="0.855469"/><stop stop-opacity="1" stop-color="rgb(82.681274%, 91.616821%, 96.821594%)" offset="0.859375"/><stop stop-opacity="1" stop-color="rgb(82.89032%, 91.708374%, 96.859741%)" offset="0.863281"/><stop stop-opacity="1" stop-color="rgb(83.099365%, 91.799927%, 96.899414%)" offset="0.867188"/><stop stop-opacity="1" stop-color="rgb(83.099365%, 91.799927%, 96.899414%)" offset="0.875"/><stop stop-opacity="1" stop-color="rgb(83.099365%, 91.799927%, 96.899414%)" offset="1"/></linearGradient><clipPath id="48034fe6e8"><path d="M 69 30.84375 L 353 30.84375 L 353 292.28125 L 69 292.28125 Z M 69 30.84375 " clip-rule="nonzero"/></clipPath></defs><g clip-path="url(#8cd82c56a9)"><g clip-path="url(#a3f3a1c479)"><g clip-path="url(#f7edf91c61)"><g clip-path="url(#2f03879abf)"><path fill="url(#6dbd7449b3)" d="M 486.753906 149.191406 L 117.980469 -94.769531 L -125.5 273.273438 L 243.273438 517.238281 Z M 486.753906 149.191406 " fill-rule="nonzero"/></g></g></g></g><path fill="#3b3c3d" d="M 353.914062 2.128906 C 353.195312 3.46875 352.46875 4.816406 351.746094 6.164062 C 352.394531 5.617188 353.222656 5.160156 354.347656 4.816406 C 355.300781 4.148438 354.5 3.214844 353.914062 2.128906 " fill-opacity="1" fill-rule="nonzero"/><path fill="#3b3c3d" d="M 349.714844 9.878906 C 349.585938 10.121094 349.449219 10.363281 349.324219 10.589844 C 349.347656 10.867188 349.386719 11.152344 349.441406 11.40625 C 349.507812 10.886719 349.605469 10.375 349.714844 9.878906 " fill-opacity="1" fill-rule="nonzero"/><path fill="#3b3c3d" d="M 347.5 17.628906 C 348.351562 16.476562 348.769531 15.179688 349.035156 13.871094 C 348.207031 14.746094 347.632812 15.953125 347.5 17.628906 " fill-opacity="1" fill-rule="nonzero"/><path fill="#3b3c3d" d="M 351.292969 12.398438 C 350.414062 12.527344 349.609375 12.414062 349.4375 11.441406 C 349.4375 11.433594 349.441406 11.425781 349.4375 11.40625 C 349.316406 12.222656 349.203125 13.042969 349.035156 13.867188 C 349.660156 13.210938 350.433594 12.722656 351.292969 12.398438 " fill-opacity="1" fill-rule="nonzero"/><path fill="#3b3c3d" d="M 351.292969 12.398438 C 352.148438 12.273438 353.078125 11.875 353.5625 11.816406 C 352.777344 11.929688 352.015625 12.121094 351.292969 12.398438 " fill-opacity="1" fill-rule="nonzero"/><path fill="#3b3c3d" d="M 366.445312 21.730469 C 366.601562 22.707031 362.160156 20.402344 362.484375 22.339844 C 362.15625 26.363281 362.804688 30.277344 361.304688 33.503906 C 361.65625 35.472656 355.507812 35.3125 355.78125 37.238281 C 355.339844 41.226562 356.929688 52.960938 359.261719 47.691406 C 360.886719 43.660156 362.03125 40.238281 363.105469 36.914062 C 364.085938 33.542969 364.984375 30.269531 366.210938 26.566406 C 367.058594 20.007812 367.441406 13.542969 368.5 7 C 369.054688 5.285156 370.101562 3.921875 371.058594 2.507812 C 369.507812 4.21875 367.828125 5.929688 366.101562 7.886719 C 363.457031 10.28125 367.609375 16.554688 366.445312 21.730469 " fill-opacity="1" fill-rule="nonzero"/><g clip-path="url(#48034fe6e8)"><path fill="#3b3c3d" d="M 344.269531 34.867188 C 341.957031 39.652344 339.613281 44.257812 337.242188 48.722656 C 336.039062 50.945312 334.847656 53.140625 333.667969 55.324219 C 332.382812 57.445312 331.113281 59.550781 329.84375 61.640625 C 330.339844 62.761719 331.085938 63.765625 330.078125 64.371094 C 328.949219 64.625 328.097656 65.035156 327.410156 65.53125 C 326.648438 66.742188 325.882812 67.945312 325.132812 69.140625 C 325.003906 69.636719 324.878906 70.140625 324.75 70.648438 C 324.75 70.65625 324.75 70.683594 324.75 70.699219 C 324.863281 71.675781 325.652344 71.84375 326.535156 71.765625 C 327.261719 71.539062 328.054688 71.394531 328.839844 71.335938 C 328.339844 71.371094 327.394531 71.691406 326.535156 71.765625 C 325.652344 72.050781 324.855469 72.464844 324.191406 73.09375 C 323.832031 74.386719 323.335938 75.667969 322.402344 76.757812 C 322.640625 75.097656 323.292969 73.921875 324.191406 73.09375 C 324.410156 72.273438 324.570312 71.460938 324.75 70.648438 C 324.730469 70.378906 324.710938 70.109375 324.6875 69.824219 C 322.914062 72.558594 321.152344 75.277344 319.382812 78 C 319.136719 78.714844 318.90625 79.402344 318.746094 79.976562 C 318.125 82.324219 317.507812 84.675781 314.667969 84.691406 C 314.335938 85.160156 313.992188 85.632812 313.652344 86.105469 C 313.839844 86.09375 314.003906 86.050781 314.210938 86.046875 C 313.945312 86.1875 313.695312 86.292969 313.46875 86.367188 C 312.039062 88.351562 310.601562 90.339844 309.164062 92.34375 C 309.164062 94.1875 309.332031 96.210938 309.105469 97.992188 C 309.105469 97.992188 307.117188 98.070312 306.132812 98.105469 C 306.855469 99.332031 307.074219 100.585938 306.859375 101.765625 C 308.8125 101.410156 310.839844 101.234375 312.289062 100.796875 C 315.28125 100.664062 309.890625 95.007812 314.933594 95.765625 C 309.890625 95.007812 315.285156 100.65625 312.289062 100.796875 C 310.839844 101.234375 308.8125 101.410156 306.859375 101.765625 C 306.425781 104.230469 303.980469 106.265625 300.625 106.996094 C 300.449219 103.339844 303.585938 102.351562 306.859375 101.765625 C 307.074219 100.582031 306.855469 99.328125 306.132812 98.105469 C 307.117188 98.066406 309.105469 97.992188 309.105469 97.992188 C 309.339844 96.207031 309.164062 94.1875 309.164062 92.34375 C 306.3125 96.210938 303.59375 100.222656 300.492188 104.09375 C 295.472656 110.304688 290.933594 116.617188 286.214844 122.707031 C 281.40625 128.726562 276.917969 134.894531 272.125 140.859375 C 262.503906 152.742188 252.644531 164.621094 240.867188 175.820312 C 228.195312 188.03125 214.53125 198.089844 200.441406 206.324219 C 186.441406 214.535156 174.371094 223.429688 161.226562 230.507812 C 148.203125 237.511719 133.796875 242.6875 118.027344 241.160156 C 112.074219 240.667969 104.589844 242.257812 97.304688 243.570312 C 90.039062 244.933594 82.984375 246 78.582031 246.121094 C 75.507812 248.148438 73.765625 250.796875 72.378906 253.886719 C 71.886719 255.421875 71.199219 257.023438 70.972656 258.6875 C 70.746094 260.367188 70.355469 262.019531 70.050781 263.628906 C 68.296875 270 70.128906 276.003906 70.429688 276.621094 C 72.523438 281.464844 75.09375 284.398438 77.824219 286.261719 C 80.566406 288.078125 83.542969 288.894531 86.835938 289.234375 C 93.519531 289.949219 101.320312 289.484375 113.90625 292.28125 C 105.382812 290.792969 107.914062 287.386719 114.21875 285.4375 C 120.542969 283.347656 130.800781 282.34375 139.921875 285.550781 C 153.414062 290.859375 166.882812 286.140625 178.667969 278.5625 C 180.171875 277.632812 181.671875 276.6875 183.140625 275.699219 C 184.570312 274.648438 186 273.601562 187.4375 272.554688 C 190.285156 270.449219 193.144531 268.34375 195.992188 266.242188 C 201.523438 261.910156 207.339844 258.128906 213.285156 254.996094 C 216.300781 253.476562 219.121094 251.484375 221.957031 249.277344 C 224.699219 246.972656 227.492188 244.488281 230.652344 242.09375 C 235.1875 239.480469 239.269531 236.457031 243.25 233.335938 C 247.238281 230.222656 251.121094 227.007812 254.617188 223.488281 C 258.167969 220.011719 261.671875 216.484375 264.992188 212.824219 C 268.210938 209.09375 271.351562 205.296875 274.472656 201.464844 C 277.667969 197.683594 280.503906 193.65625 283.453125 189.679688 C 286.355469 185.667969 289.433594 181.742188 292.273438 177.636719 C 297.921875 169.402344 304.097656 161.328125 310.214844 152.941406 C 313.34375 148.402344 315.394531 143.515625 316.929688 138.609375 C 318.367188 133.65625 319.40625 128.730469 320.816406 124.207031 C 322.265625 121.171875 324.46875 118.484375 326.6875 115.976562 C 328.835938 113.4375 330.933594 111.042969 332.328125 108.714844 C 336.601562 101.332031 339.023438 94.214844 340.421875 87.007812 C 337.484375 94.296875 335.539062 99.808594 331.761719 107.742188 C 329.050781 112.902344 328.347656 100.9375 329.070312 96.957031 C 328.9375 94.992188 335.050781 95.578125 334.921875 93.59375 C 336.785156 90.535156 336.402344 86.546875 336.996094 82.511719 C 336.808594 80.53125 341.085938 83.144531 340.996094 82.152344 C 342.527344 77.015625 338.8125 70.4375 341.601562 68.199219 C 343.464844 66.355469 345.238281 64.726562 346.980469 63.144531 C 347.886719 62.035156 348.695312 60.894531 349.195312 59.484375 C 349.25 58.476562 349.300781 57.433594 349.355469 56.386719 C 347.65625 56.355469 345.871094 55.734375 344.089844 55.085938 C 344.945312 54 346.792969 52.796875 347.660156 51.707031 C 346.792969 52.796875 344.941406 54 344.089844 55.085938 C 345.871094 55.730469 347.65625 56.355469 349.355469 56.386719 C 349.832031 48.957031 351.007812 40.789062 352.347656 33.375 C 352.207031 33.339844 352.046875 33.300781 351.902344 33.265625 C 350.445312 37.269531 348.160156 40.769531 343.460938 43.308594 C 345.304688 42.113281 346.441406 42.945312 345.722656 45.015625 C 344.734375 45.128906 343.730469 45.246094 342.746094 45.363281 C 343.199219 41.363281 343.617188 37.398438 348.460938 35.816406 C 348.460938 35.816406 348.183594 33.882812 348.042969 32.921875 C 349.199219 32.164062 350.585938 32.902344 351.902344 33.269531 C 352.1875 32.488281 352.457031 31.6875 352.65625 30.855469 C 349.660156 31.363281 344.269531 34.867188 344.269531 34.867188 " fill-opacity="1" fill-rule="nonzero"/></g><path fill="#3b3c3d" d="M 324.015625 73.105469 C 324.144531 72.523438 324.386719 71.851562 324.636719 71.136719 C 323.132812 73.40625 321.625 75.683594 320.113281 77.964844 C 322.925781 77.898438 323.46875 75.503906 324.015625 73.105469 " fill-opacity="1" fill-rule="nonzero"/><path fill="#00668c" d="M 277.679688 94.613281 C 275.691406 97.835938 273.675781 100.898438 271.625 103.855469 C 269.601562 106.824219 267.519531 109.660156 265.246094 112.304688 C 265.734375 113.296875 266.441406 114.253906 265.542969 114.5 C 264.515625 114.4375 263.746094 114.566406 263.136719 114.792969 C 262.472656 115.5625 261.8125 116.332031 261.152344 117.097656 C 261.039062 117.449219 260.941406 117.816406 260.847656 118.195312 C 260.847656 118.199219 260.847656 118.21875 260.847656 118.238281 C 260.976562 119.027344 261.699219 119.347656 262.5 119.496094 C 263.160156 119.484375 263.875 119.554688 264.589844 119.6875 C 264.132812 119.605469 263.285156 119.640625 262.5 119.496094 C 261.707031 119.511719 260.992188 119.648438 260.402344 119.988281 C 260.113281 120.921875 259.691406 121.8125 258.875 122.453125 C 259.050781 121.199219 259.609375 120.425781 260.402344 119.988281 C 260.585938 119.394531 260.707031 118.792969 260.847656 118.195312 C 260.820312 117.976562 260.796875 117.757812 260.765625 117.53125 C 259.230469 119.261719 257.695312 120.984375 256.164062 122.707031 C 255.957031 123.214844 255.753906 123.691406 255.648438 124.128906 C 255.152344 125.832031 254.636719 127.550781 252.085938 126.867188 L 251.199219 127.730469 C 251.363281 127.761719 251.519531 127.789062 251.699219 127.824219 C 251.46875 127.875 251.242188 127.894531 251.042969 127.894531 C 249.804688 129.109375 248.5625 130.332031 247.308594 131.5625 C 247.351562 133.03125 247.546875 134.6875 247.371094 136.054688 C 247.371094 136.054688 245.597656 135.605469 244.714844 135.386719 C 245.386719 136.546875 245.605469 137.605469 245.429688 138.5 C 247.167969 138.714844 248.980469 139.09375 250.277344 139.105469 C 252.960938 139.753906 248.019531 133.878906 252.554688 135.746094 C 248.019531 133.875 252.960938 139.753906 250.277344 139.105469 C 248.980469 139.09375 247.167969 138.71875 245.429688 138.5 C 245.085938 140.355469 242.941406 141.363281 239.980469 141.0625 C 239.757812 138.082031 242.523438 138.125 245.429688 138.5 C 245.605469 137.605469 245.386719 136.546875 244.714844 135.386719 C 245.597656 135.605469 247.371094 136.054688 247.371094 136.054688 C 247.546875 134.6875 247.351562 133.03125 247.308594 131.5625 C 244.835938 133.917969 242.492188 136.421875 239.808594 138.699219 C 235.457031 142.332031 231.578125 146.210938 227.492188 149.765625 C 225.46875 151.558594 223.453125 153.34375 221.441406 155.121094 C 219.453125 156.929688 217.5 158.753906 215.386719 160.394531 C 211.207031 163.722656 207.242188 167.355469 202.722656 170.351562 C 200.503906 171.898438 198.265625 173.457031 196 175.03125 C 193.660156 176.472656 191.230469 177.824219 188.789062 179.199219 C 178.007812 184.8125 166.9375 188.667969 155.917969 189.808594 C 145.046875 191.023438 135.792969 193.691406 126.121094 194.292969 C 116.601562 194.898438 106.558594 193.1875 98.464844 185.488281 C 95.390625 182.640625 90.785156 181.253906 86.210938 179.773438 C 81.636719 178.394531 77.015625 177.140625 74.265625 175.972656 C 71.546875 176.886719 69.089844 178.785156 66.894531 181.175781 C 64.617188 183.519531 62.878906 186.570312 60.914062 189.195312 C 56.894531 194.398438 55.34375 200.164062 55.28125 200.820312 C 53.773438 210.585938 56.410156 214.324219 60.238281 217.226562 C 64.222656 220.152344 69.316406 222.457031 76.214844 230.007812 C 71.363281 225.335938 74.433594 223.292969 79.226562 223.960938 C 84.082031 224.691406 90.945312 227.816406 95.773438 234.710938 C 102.738281 245.191406 114.027344 246.828125 124.933594 245.085938 C 135.992188 243.320312 146.515625 238.769531 157.144531 238.144531 C 159.886719 238.113281 162.398438 237.175781 165.078125 236.28125 C 167.71875 235.304688 170.535156 234.351562 173.40625 233.246094 C 177.367188 232.398438 181.359375 231.453125 185.070312 230.066406 C 188.742188 228.644531 192.332031 227.039062 195.839844 225.304688 C 202.5625 221.515625 209.042969 217.300781 214.8125 212.398438 C 220.878906 207.746094 226.078125 202.335938 231.769531 197.257812 C 234.429688 194.582031 237.113281 191.902344 239.90625 189.28125 C 241.316406 187.980469 242.730469 186.675781 244.160156 185.359375 C 245.523438 184.011719 246.914062 182.675781 248.34375 181.355469 C 251.210938 178.390625 253.089844 174.8125 254.5625 171.164062 C 255.886719 167.425781 256.835938 163.632812 258.101562 160.273438 C 259.398438 158.144531 261.371094 156.5 263.363281 155 C 265.289062 153.464844 267.167969 152.035156 268.40625 150.476562 C 272.210938 145.515625 274.371094 140.324219 275.496094 134.859375 C 272.964844 140.027344 271.230469 144.019531 267.890625 149.542969 C 265.480469 153.070312 264.753906 143.1875 265.339844 140.175781 C 265.1875 138.558594 270.742188 140.496094 270.601562 138.863281 C 272.253906 136.835938 271.808594 133.535156 272.285156 130.464844 C 272.074219 128.84375 276.03125 131.917969 275.929688 131.105469 C 277.242188 127.347656 273.691406 121.285156 276.195312 120.148438 C 277.855469 119.101562 279.464844 118.21875 281.011719 117.339844 C 281.789062 116.648438 282.519531 115.9375 282.941406 114.933594 C 282.96875 114.152344 282.992188 113.34375 283.015625 112.53125 C 281.445312 112.132812 279.785156 111.253906 278.125 110.347656 C 278.882812 109.6875 280.558594 109.152344 281.324219 108.484375 C 280.558594 109.152344 278.882812 109.6875 278.125 110.347656 C 279.785156 111.253906 281.445312 112.136719 283.015625 112.53125 C 283.265625 106.785156 284.117188 100.65625 285.125 95.167969 C 284.996094 95.109375 284.847656 95.046875 284.710938 94.988281 C 283.484375 97.792969 281.46875 100.042969 277.203125 101 C 278.871094 100.464844 279.949219 101.359375 279.34375 102.820312 C 278.429688 102.695312 277.511719 102.566406 276.605469 102.445312 C 276.902344 99.421875 277.160156 96.4375 281.59375 96.242188 C 281.59375 96.242188 281.273438 94.683594 281.113281 93.90625 C 282.164062 93.566406 283.476562 94.425781 284.710938 94.988281 C 284.964844 94.453125 285.132812 93.851562 285.304688 93.257812 C 283.941406 93.148438 282.035156 93.5 280.460938 93.855469 C 278.890625 94.226562 277.679688 94.613281 277.679688 94.613281 " fill-opacity="1" fill-rule="nonzero"/><path fill="#00668c" d="M 260.246094 119.960938 C 260.351562 119.527344 260.546875 119.054688 260.761719 118.546875 C 259.453125 119.984375 258.144531 121.417969 256.828125 122.859375 C 259.371094 123.480469 259.8125 121.710938 260.246094 119.960938 " fill-opacity="1" fill-rule="nonzero"/><path fill="#00668c" d="M 285.5 71.386719 C 284.878906 72.265625 284.253906 73.152344 283.625 74.042969 C 284.210938 73.753906 284.964844 73.570312 286.007812 73.535156 C 286.867188 73.214844 286.09375 72.335938 285.5 71.386719 " fill-opacity="1" fill-rule="nonzero"/><path fill="#00668c" d="M 281.867188 76.472656 C 281.75 76.632812 281.632812 76.792969 281.523438 76.941406 C 281.5625 77.164062 281.601562 77.382812 281.664062 77.59375 C 281.707031 77.207031 281.777344 76.832031 281.867188 76.472656 " fill-opacity="1" fill-rule="nonzero"/><path fill="#00668c" d="M 280.078125 81.96875 C 280.824219 81.257812 281.171875 80.351562 281.367188 79.398438 C 280.632812 79.898438 280.136719 80.707031 280.078125 81.96875 " fill-opacity="1" fill-rule="nonzero"/><path fill="#00668c" d="M 283.429688 78.734375 C 282.609375 78.648438 281.855469 78.398438 281.660156 77.617188 L 281.664062 77.589844 C 281.578125 78.191406 281.503906 78.796875 281.371094 79.398438 C 281.933594 79.023438 282.636719 78.808594 283.429688 78.734375 " fill-opacity="1" fill-rule="nonzero"/><path fill="#00668c" d="M 283.429688 78.734375 C 284.214844 78.816406 285.070312 78.695312 285.519531 78.75 C 284.792969 78.675781 284.089844 78.667969 283.429688 78.734375 " fill-opacity="1" fill-rule="nonzero"/><path fill="#00668c" d="M 297.875 89.019531 C 298.050781 89.8125 293.828125 87.125 294.195312 88.691406 C 294.011719 91.742188 294.734375 94.921875 293.429688 97.125 C 293.800781 98.734375 288.128906 97.355469 288.425781 98.902344 C 288.144531 101.910156 289.925781 111.46875 291.945312 107.828125 C 293.339844 104.996094 294.339844 102.566406 295.199219 100.160156 C 296.015625 97.734375 296.761719 95.367188 297.796875 92.734375 C 298.394531 87.804688 298.550781 82.875 299.328125 78.03125 C 299.796875 76.820312 300.695312 75.957031 301.566406 75.0625 C 300.15625 76.074219 298.675781 77.085938 297.109375 78.242188 C 294.714844 79.5625 298.808594 85.230469 297.875 89.019531 " fill-opacity="1" fill-rule="nonzero"/><path fill="#00668c" d="M 299.6875 51.882812 C 299.910156 52.640625 300.363281 54.167969 300.363281 54.167969 C 295.972656 54.699219 295.957031 57.675781 295.914062 60.6875 C 296.824219 60.738281 297.746094 60.792969 298.671875 60.84375 C 299.152344 59.363281 298.003906 58.546875 296.398438 59.210938 C 300.550781 57.945312 302.375 55.570312 303.363281 52.695312 C 302.074219 52.230469 300.703125 51.46875 299.6875 51.882812 " fill-opacity="1" fill-rule="nonzero"/><path fill="#00668c" d="M 303.84375 50.957031 C 303.703125 51.550781 303.542969 52.136719 303.363281 52.699219 C 303.496094 52.746094 303.632812 52.792969 303.773438 52.84375 C 303.84375 52.207031 303.910156 51.578125 303.980469 50.957031 L 303.84375 50.957031 " fill-opacity="1" fill-rule="nonzero"/><g fill="#3b3c3d" fill-opacity="1"><g transform="translate(298.441865, 238.841825)"><g><path d="M 35.320312 -146.070312 C 35.320312 -146.460938 35.0625 -146.71875 34.804688 -146.71875 C 34.546875 -146.71875 33.640625 -146.976562 32.863281 -147.367188 C 32.214844 -147.753906 31.441406 -148.011719 31.308594 -147.882812 C 31.179688 -147.753906 30.921875 -147.753906 30.535156 -148.140625 C 30.273438 -148.402344 28.980469 -148.660156 27.816406 -148.789062 C 24.839844 -149.046875 23.675781 -148.140625 23.160156 -144.90625 C 22.902344 -143.613281 22.511719 -142.191406 22.253906 -141.800781 C 21.996094 -141.414062 21.996094 -140.636719 22.125 -140.121094 C 22.382812 -139.601562 22.382812 -138.566406 22.125 -137.664062 C 21.867188 -136.109375 21.605469 -135.074219 20.960938 -131.324219 C 20.832031 -130.417969 20.183594 -127.828125 19.667969 -125.371094 C 18.371094 -120.324219 16.042969 -108.421875 15.65625 -105.1875 C 15.527344 -103.894531 15.007812 -101.566406 14.621094 -100.011719 C 14.230469 -98.332031 13.84375 -95.355469 13.714844 -93.15625 C 13.457031 -89.015625 10.351562 -68.3125 8.152344 -56.152344 C 7.375 -52.269531 6.726562 -47.871094 6.46875 -46.707031 C 6.082031 -43.34375 4.917969 -36.746094 3.882812 -31.828125 C 2.976562 -27.300781 2.199219 -22.769531 2.457031 -22.382812 C 2.976562 -21.996094 3.234375 -22.902344 3.753906 -26.78125 C 4.527344 -31.308594 4.789062 -32.34375 5.304688 -34.285156 C 5.5625 -35.191406 5.953125 -36.875 6.082031 -38.425781 C 6.210938 -39.847656 6.726562 -41.273438 6.988281 -41.660156 C 7.503906 -42.050781 7.503906 -42.308594 7.117188 -42.824219 C 6.726562 -43.214844 6.726562 -43.34375 7.503906 -43.085938 C 8.796875 -42.695312 8.925781 -43.085938 7.761719 -43.988281 C 7.117188 -44.507812 7.117188 -44.507812 7.761719 -45.285156 C 8.796875 -46.1875 8.796875 -46.707031 7.890625 -46.058594 C 7.375 -45.542969 7.246094 -45.800781 7.503906 -48.128906 C 7.632812 -49.554688 8.023438 -51.882812 8.410156 -53.175781 C 8.667969 -54.597656 9.058594 -56.796875 9.1875 -58.09375 C 9.316406 -59.515625 9.574219 -60.808594 9.703125 -61.066406 C 10.089844 -61.457031 10.996094 -67.539062 10.867188 -68.832031 C 10.867188 -69.21875 11.125 -69.476562 11.386719 -69.476562 C 11.773438 -69.347656 11.902344 -68.960938 11.902344 -68.574219 C 11.773438 -68.054688 12.03125 -67.796875 12.421875 -67.796875 C 13.066406 -67.796875 13.066406 -67.40625 12.9375 -66.242188 C 12.292969 -62.101562 10.738281 -52.660156 10.089844 -49.683594 C 9.832031 -47.742188 9.445312 -44.765625 9.1875 -42.953125 C 9.058594 -41.273438 8.796875 -39.460938 8.667969 -38.945312 C 8.28125 -37.261719 6.988281 -29.5 6.46875 -26.394531 C 6.082031 -23.546875 5.304688 -19.667969 4.917969 -18.113281 C 4.789062 -17.078125 4.269531 -13.714844 3.882812 -10.609375 C 3.492188 -7.503906 3.105469 -4.011719 2.976562 -2.847656 C 2.71875 -1.8125 2.585938 0.257812 2.457031 1.683594 C 2.070312 5.046875 1.941406 6.46875 1.292969 9.316406 C 0.90625 11.257812 1.035156 11.902344 1.292969 12.03125 C 1.683594 12.160156 1.683594 12.292969 1.421875 12.550781 C 1.164062 12.679688 0.777344 13.585938 0.648438 14.621094 C 0.515625 16.042969 0.515625 16.171875 0.777344 15.394531 C 1.421875 14.101562 1.8125 14.101562 1.8125 15.265625 C 1.8125 15.65625 1.421875 16.429688 1.035156 16.949219 C 0.515625 17.335938 0.128906 18.113281 0.128906 18.632812 C -0.128906 20.832031 -0.386719 21.476562 -1.421875 21.347656 C -2.976562 21.089844 -3.105469 20.441406 -2.976562 17.597656 C -2.847656 15.785156 -2.847656 15.265625 -3.105469 15.65625 C -3.882812 16.820312 -4.269531 23.289062 -3.621094 23.675781 C -3.363281 23.9375 -2.976562 23.804688 -2.847656 23.417969 C -2.457031 22.902344 -1.035156 24.066406 1.8125 27.300781 L 2.847656 28.464844 L 3.621094 26.394531 L 4.527344 27.429688 C 5.433594 28.464844 7.117188 28.722656 8.28125 27.816406 C 8.925781 27.429688 9.058594 26.523438 9.058594 23.03125 C 9.058594 20.699219 9.316406 18.371094 9.574219 17.855469 C 9.832031 17.464844 10.089844 16.042969 10.089844 14.878906 C 10.222656 13.585938 10.480469 12.421875 10.609375 12.160156 C 10.738281 11.902344 10.996094 10.738281 11.125 9.574219 C 11.257812 8.28125 11.773438 6.082031 12.292969 4.527344 C 12.679688 2.976562 13.195312 0 13.328125 -2.070312 C 13.84375 -7.890625 13.84375 -8.28125 14.621094 -12.160156 C 15.007812 -14.101562 16.042969 -19.148438 16.691406 -23.289062 C 17.464844 -27.429688 18.371094 -32.214844 18.632812 -33.898438 C 19.019531 -35.710938 19.667969 -39.589844 20.183594 -42.566406 C 20.570312 -45.542969 21.089844 -48.257812 21.21875 -48.519531 C 21.476562 -48.777344 21.867188 -50.589844 22.125 -52.527344 C 22.769531 -56.796875 22.640625 -55.632812 24.453125 -66.242188 C 25.230469 -70.640625 26.003906 -75.171875 26.136719 -76.207031 C 26.136719 -77.113281 26.394531 -78.664062 26.523438 -79.570312 C 26.652344 -80.476562 26.78125 -82.027344 26.910156 -83.191406 C 27.429688 -88.367188 27.945312 -91.730469 28.464844 -92.765625 C 29.109375 -94.320312 30.664062 -102.082031 31.570312 -107.90625 C 32.214844 -111.914062 34.15625 -119.808594 34.933594 -121.488281 C 35.0625 -122.007812 35.449219 -123.949219 35.839844 -125.886719 C 36.097656 -127.699219 36.613281 -129.769531 36.875 -130.417969 C 37.132812 -130.933594 37.390625 -132.488281 37.390625 -133.652344 C 37.519531 -134.816406 37.78125 -136.496094 38.039062 -137.402344 C 38.554688 -139.34375 37.648438 -142.707031 36.226562 -144.390625 C 35.710938 -145.035156 35.320312 -145.8125 35.320312 -146.070312 Z M 3.621094 0.257812 C 3.363281 0.257812 3.105469 0.128906 3.105469 -0.128906 C 3.105469 -0.386719 3.363281 -0.648438 3.621094 -0.648438 C 3.882812 -0.648438 4.011719 -0.386719 4.011719 -0.128906 C 4.011719 0.128906 3.882812 0.257812 3.621094 0.257812 Z M 4.917969 -9.960938 C 4.65625 -9.703125 4.527344 -9.960938 4.527344 -10.351562 C 4.527344 -11.125 4.789062 -11.257812 5.175781 -10.609375 C 5.304688 -10.351562 5.175781 -10.089844 4.917969 -9.960938 Z M 13.066406 -69.089844 C 12.808594 -69.089844 12.679688 -69.347656 12.679688 -69.605469 C 12.679688 -69.867188 12.808594 -69.996094 13.066406 -69.996094 C 13.328125 -69.996094 13.585938 -69.867188 13.585938 -69.605469 C 13.585938 -69.347656 13.328125 -69.089844 13.066406 -69.089844 Z M 14.101562 -73.617188 C 13.84375 -72.066406 13.585938 -71.675781 12.9375 -71.675781 C 12.421875 -71.808594 12.160156 -71.546875 12.160156 -71.03125 C 12.160156 -70.382812 12.03125 -69.996094 11.773438 -69.996094 C 11.257812 -69.996094 11.773438 -74.136719 12.292969 -74.78125 C 12.550781 -75.042969 12.808594 -75.042969 13.195312 -74.523438 C 13.585938 -73.878906 13.714844 -74.136719 13.585938 -76.207031 C 13.585938 -77.371094 13.585938 -77.5 13.972656 -76.464844 C 14.230469 -75.945312 14.230469 -74.652344 14.101562 -73.617188 Z M 15.265625 -82.027344 C 14.878906 -79.957031 14.492188 -78.40625 14.101562 -78.277344 C 13.585938 -78.148438 13.585938 -78.277344 13.972656 -79.050781 C 14.363281 -79.828125 14.363281 -79.957031 13.84375 -79.957031 C 12.9375 -79.957031 12.808594 -80.863281 13.714844 -81.121094 C 13.972656 -81.25 14.363281 -82.15625 14.363281 -83.320312 C 14.492188 -85.003906 15.007812 -86.425781 15.65625 -85.78125 C 15.65625 -85.78125 15.527344 -84.097656 15.265625 -82.027344 Z M 15.265625 -82.027344 "/></g></g></g><g fill="#3b3c3d" fill-opacity="1"><g transform="translate(256.176005, 205.722716)"><g><path d="M 51.234375 -3.722656 C 50.351562 -4.703125 50.351562 -4.800781 51.234375 -4.605469 C 52.507812 -4.410156 49.566406 -6.5625 48.292969 -6.855469 C 47.804688 -6.957031 47.414062 -7.25 47.316406 -7.542969 C 47.21875 -7.738281 47.609375 -7.835938 48.195312 -7.738281 C 48.6875 -7.640625 49.371094 -7.640625 49.566406 -7.835938 C 50.058594 -8.230469 47.707031 -10.285156 45.945312 -10.972656 C 44.375 -11.558594 36.246094 -12.34375 32.914062 -12.148438 C 31.542969 -12.148438 29.78125 -12.148438 28.996094 -12.148438 C 25.46875 -12.34375 19.394531 -12.441406 17.925781 -12.246094 C 17.046875 -12.148438 15.183594 -12.34375 13.714844 -12.636719 C 11.460938 -13.027344 11.265625 -13.125 12.148438 -13.421875 C 13.125 -13.714844 13.125 -13.714844 12.34375 -13.8125 C 11.851562 -13.910156 10.285156 -13.714844 8.816406 -13.324219 C 7.445312 -12.832031 5.976562 -12.539062 5.683594 -12.636719 C 5.386719 -12.636719 4.210938 -12.636719 3.035156 -12.539062 C 1.371094 -12.34375 0.785156 -12.050781 0.390625 -11.265625 C 0.0976562 -10.679688 0.195312 -10.382812 0.6875 -10.679688 C 1.078125 -10.875 1.566406 -10.777344 1.960938 -10.382812 C 2.839844 -9.796875 2.9375 -8.328125 2.15625 -8.816406 C 0 -10.089844 -0.292969 -10.089844 -0.390625 -9.109375 C -0.488281 -8.621094 -0.195312 -7.738281 0.292969 -7.152344 C 0.6875 -6.5625 0.882812 -5.878906 0.785156 -5.683594 C 0.6875 -5.484375 0.882812 -4.996094 1.175781 -4.605469 C 1.566406 -4.210938 1.960938 -3.429688 2.058594 -2.742188 C 2.15625 -1.859375 2.546875 -1.566406 3.035156 -1.664062 C 3.527344 -1.664062 5.386719 -1.46875 7.152344 -1.273438 C 10.578125 -0.785156 12.929688 -0.585938 14.398438 -0.882812 C 14.890625 -0.980469 17.339844 -1.078125 19.789062 -1.078125 C 22.238281 -1.078125 25.566406 -1.078125 27.136719 -1.175781 C 28.800781 -1.175781 31.152344 -1.175781 32.425781 -1.175781 C 33.601562 -1.175781 34.972656 -1.46875 35.265625 -1.664062 C 35.558594 -2.058594 35.855469 -2.058594 36.148438 -1.664062 C 36.441406 -1.273438 36.929688 -1.273438 37.617188 -1.566406 C 38.203125 -1.859375 39.773438 -1.960938 41.144531 -1.859375 C 42.417969 -1.761719 44.472656 -1.664062 45.648438 -1.761719 C 46.726562 -1.859375 48.292969 -1.761719 48.980469 -1.664062 C 49.765625 -1.566406 50.742188 -1.761719 51.234375 -2.058594 C 52.015625 -2.644531 52.015625 -2.839844 51.234375 -3.722656 Z M 41.632812 -9.402344 C 40.851562 -9.601562 39.578125 -9.699219 38.890625 -9.601562 C 38.105469 -9.503906 37.421875 -9.601562 37.324219 -9.699219 C 37.128906 -10.089844 40.949219 -10.382812 42.320312 -10.089844 C 42.90625 -9.992188 43.398438 -9.796875 43.199219 -9.503906 C 43.101562 -9.304688 42.417969 -9.304688 41.632812 -9.402344 Z M 45.648438 -9.109375 C 44.472656 -8.71875 43.984375 -8.816406 44.179688 -9.304688 C 44.277344 -9.601562 44.867188 -9.601562 45.453125 -9.503906 C 46.335938 -9.304688 46.433594 -9.207031 45.648438 -9.109375 Z M 45.648438 -9.109375 "/></g></g></g></svg>